<svg width="578" height="604" viewBox="0 0 578 604" fill="none" xmlns="http://www.w3.org/2000/svg">
<path opacity="0.2" d="M52.67 78.84V205.76C52.67 214.18 59.02 218.42 66.57 218.42H261.1C268.31 218.42 272.1 221.93 272.1 227.97V458.83C272.1 464.63 268.1 468.93 260.69 468.93H63.69C55.69 468.93 52.69 472.77 52.69 478.72V526.83" stroke="black" stroke-width="2" stroke-miterlimit="10"/>
<path opacity="0.2" d="M211.88 79.88V192.48C211.88 200.9 217.68 206.79 225.73 206.79H273.16C280.59 206.79 283.66 210.58 283.66 215.66V470.43C283.66 476.9 278.96 481.17 272.38 481.17H223.63C216.94 481.17 212.83 485.91 212.83 492.06V527.06" stroke="black" stroke-width="2" stroke-miterlimit="10"/>
<path opacity="0.2" d="M526.6 78.84V205.76C526.6 214.18 520.24 218.42 512.69 218.42H318.17C310.95 218.42 307.17 221.93 307.17 227.97V458.83C307.17 464.63 311.17 468.93 318.58 468.93H515.65C523.65 468.93 526.65 472.77 526.65 478.72V526.83" stroke="black" stroke-width="2" stroke-miterlimit="10"/>
<path opacity="0.2" d="M367.38 79.88V191.34C367.38 200.13 361 206.79 352.32 206.79H306.1C298.68 206.79 295.6 210.58 295.6 215.66V470.43C295.6 476.9 300.31 481.17 306.88 481.17H355.63C362.32 481.17 366.43 485.91 366.43 492.06V527.06" stroke="black" stroke-width="2" stroke-miterlimit="10"/>
<path d="M368.46 98.42C395.638 98.42 417.67 76.3879 417.67 49.21C417.67 22.0321 395.638 0 368.46 0C341.282 0 319.25 22.0321 319.25 49.21C319.25 76.3879 341.282 98.42 368.46 98.42Z" fill="white"/>
<path d="M392.34 45.82C391.903 45.821 391.472 45.9173 391.077 46.1021C390.681 46.2869 390.331 46.5558 390.05 46.89V42.3H388V55.5801H390.08V49.92C390.043 49.3645 390.222 48.8161 390.58 48.3894C390.938 47.9627 391.447 47.6907 392 47.6301C392.259 47.5861 392.526 47.6024 392.778 47.6775C393.03 47.7526 393.262 47.8846 393.455 48.0633C393.648 48.242 393.798 48.4627 393.892 48.7083C393.987 48.9539 394.024 49.2179 394 49.48V55.5801H396V49.51C396.033 49.0044 395.961 48.4973 395.789 48.0207C395.617 47.544 395.348 47.108 395 46.7401C394.647 46.4097 394.229 46.157 393.773 45.9986C393.316 45.8401 392.832 45.7793 392.35 45.82H392.34Z" fill="black"/>
<path d="M383 53.79C382.483 53.7971 381.974 53.6705 381.52 53.4226C381.067 53.1747 380.685 52.8139 380.412 52.3752C380.139 51.9364 379.984 51.4346 379.962 50.9183C379.94 50.402 380.052 49.8888 380.286 49.4284C380.521 48.9679 380.87 48.5759 381.301 48.2903C381.732 48.0046 382.229 47.8351 382.744 47.798C383.26 47.761 383.776 47.8577 384.243 48.0788C384.71 48.2999 385.112 48.6379 385.41 49.06L386.84 47.54C386.369 46.9806 385.781 46.5312 385.118 46.2237C384.454 45.9161 383.731 45.7579 383 45.76C382.148 45.76 381.31 45.9779 380.565 46.3929C379.821 46.808 379.195 47.4064 378.747 48.1314C378.299 48.8564 378.043 49.6839 378.005 50.5353C377.967 51.3867 378.147 52.2338 378.528 52.9961C378.909 53.7584 379.479 54.4106 380.183 54.8908C380.887 55.371 381.702 55.6633 382.551 55.7398C383.4 55.8164 384.254 55.6747 385.033 55.3282C385.811 54.9817 386.489 54.4419 387 53.76L385.51 52.24C385.276 52.7049 384.917 53.0958 384.474 53.3694C384.031 53.643 383.521 53.7886 383 53.79Z" fill="black"/>
<path d="M374.78 46.08V46.83C374.328 46.419 373.786 46.1191 373.197 45.9542C372.609 45.7893 371.99 45.7639 371.39 45.88C370.281 46.1053 369.285 46.7096 368.574 47.5892C367.862 48.4688 367.479 49.5687 367.49 50.7C367.419 51.313 367.472 51.934 367.644 52.5265C367.816 53.119 368.105 53.6712 368.493 54.1508C368.882 54.6303 369.362 55.0276 369.905 55.3194C370.449 55.6112 371.046 55.7916 371.66 55.85C372.252 55.9249 372.854 55.8402 373.402 55.6046C373.951 55.369 374.426 54.9911 374.78 54.51V55.58H376.87V46.08H374.78ZM374.13 53.08C373.895 53.3541 373.601 53.5712 373.271 53.715C372.94 53.8588 372.58 53.9255 372.22 53.91C371.487 53.7989 370.817 53.4285 370.334 52.8662C369.85 52.3038 369.584 51.5867 369.584 50.845C369.584 50.1034 369.85 49.3863 370.334 48.8239C370.817 48.2615 371.487 47.8912 372.22 47.78C372.581 47.7576 372.943 47.8211 373.275 47.9653C373.607 48.1096 373.9 48.3306 374.13 48.61C374.63 49.246 374.882 50.042 374.84 50.85C374.886 51.6554 374.633 52.4493 374.13 53.08Z" fill="black"/>
<path d="M404.46 46.0801V46.8301C404.004 46.4222 403.46 46.1244 402.87 45.9597C402.281 45.795 401.662 45.7677 401.06 45.8801C399.952 46.1056 398.958 46.7103 398.248 47.5901C397.538 48.4699 397.157 49.5696 397.17 50.7001C397.05 53.7001 398.95 55.7001 401.33 55.8501C401.924 55.9236 402.526 55.8384 403.076 55.603C403.626 55.3675 404.103 54.9904 404.46 54.5101V55.5801H406.54V46.0801H404.46ZM403.8 53.0801C403.567 53.3539 403.275 53.5711 402.946 53.7149C402.617 53.8587 402.259 53.9255 401.9 53.9101C401.167 53.7989 400.497 53.4286 400.014 52.8662C399.53 52.3038 399.264 51.5867 399.264 50.8451C399.264 50.1034 399.53 49.3863 400.014 48.8239C400.497 48.2616 401.167 47.8912 401.9 47.7801C402.26 47.7576 402.62 47.8211 402.95 47.9655C403.281 48.1098 403.572 48.3308 403.8 48.6101C404.307 49.2429 404.563 50.0403 404.52 50.8501C404.567 51.6572 404.31 52.4526 403.8 53.0801Z" fill="black"/>
<path d="M364 50.67L356.17 42.24C356.143 42.2163 356.11 42.2002 356.075 42.1935C356.04 42.1869 356.003 42.1898 355.969 42.2021C355.936 42.2144 355.906 42.2355 355.883 42.2633C355.86 42.2911 355.845 42.3245 355.84 42.36V55.58H358V47.51L365.82 55.79C365.845 55.8178 365.878 55.8374 365.915 55.8463C365.951 55.8553 365.99 55.8532 366.025 55.8403C366.06 55.8275 366.091 55.8045 366.113 55.7741C366.136 55.7438 366.148 55.7076 366.15 55.67V42.3H364V50.67Z" fill="black"/>
<path d="M406.54 42.3H407.4V42.42H407.05V43.42H406.9V42.42H406.54V42.3Z" fill="black"/>
<path d="M408.09 43.43L407.76 42.57V43.43H407.64V42.33H407.79L408.15 43.23L408.51 42.33H408.65V43.43H408.54V42.57L408.21 43.43H408.09Z" fill="black"/>
<path d="M344.09 46.92C343.634 46.918 343.187 47.0518 342.807 47.3042C342.427 47.5566 342.131 47.9163 341.956 48.3376C341.781 48.7588 341.735 49.2226 341.824 49.67C341.914 50.1173 342.134 50.528 342.457 50.8499C342.781 51.1717 343.192 51.3902 343.64 51.4775C344.088 51.5648 344.551 51.5169 344.972 51.3401C345.392 51.1632 345.751 50.8653 346.001 50.4843C346.252 50.1032 346.384 49.6562 346.38 49.2C346.375 48.5952 346.131 48.0168 345.703 47.5901C345.274 47.1633 344.695 46.9226 344.09 46.92Z" fill="#0CC400"/>
<path d="M338.48 43.58C338.109 43.576 337.745 43.6826 337.435 43.8861C337.124 44.0896 336.881 44.3808 336.737 44.7227C336.593 45.0647 336.554 45.4418 336.624 45.8061C336.695 46.1704 336.872 46.5055 337.134 46.7686C337.396 47.0317 337.73 47.211 338.094 47.2837C338.458 47.3564 338.835 47.3191 339.178 47.1766C339.521 47.0341 339.813 46.7929 340.018 46.4837C340.223 46.1744 340.332 45.8111 340.33 45.44C340.33 44.9484 340.135 44.4768 339.789 44.1283C339.442 43.7798 338.972 43.5826 338.48 43.58Z" fill="#0CC400"/>
<path d="M338.48 51.12C338.111 51.12 337.749 51.2294 337.442 51.4345C337.135 51.6395 336.895 51.931 336.753 52.2721C336.611 52.6132 336.574 52.9887 336.645 53.3512C336.717 53.7136 336.894 54.0468 337.154 54.3088C337.415 54.5707 337.747 54.7496 338.109 54.8228C338.471 54.8961 338.847 54.8605 339.189 54.7205C339.531 54.5805 339.823 54.3424 340.03 54.0362C340.237 53.73 340.348 53.3694 340.35 53C340.347 52.5039 340.15 52.0287 339.8 51.677C339.45 51.3253 338.976 51.1252 338.48 51.12Z" fill="#0CC400"/>
<path d="M333.68 43.9C334.519 43.9 335.2 43.2195 335.2 42.38C335.2 41.5405 334.519 40.86 333.68 40.86C332.841 40.86 332.16 41.5405 332.16 42.38C332.16 43.2195 332.841 43.9 333.68 43.9Z" fill="#0CC400"/>
<path d="M329.52 38.77C329.269 38.7681 329.023 38.8411 328.814 38.9797C328.605 39.1183 328.442 39.3162 328.346 39.548C328.25 39.7798 328.226 40.035 328.276 40.2809C328.326 40.5267 328.448 40.7521 328.627 40.9281C328.805 41.104 329.033 41.2226 329.279 41.2686C329.526 41.3146 329.781 41.2859 330.011 41.1862C330.241 41.0865 330.436 40.9204 330.572 40.709C330.707 40.4977 330.776 40.2508 330.77 40C330.762 39.6728 330.627 39.3614 330.394 39.1318C330.161 38.9023 329.847 38.7725 329.52 38.77Z" fill="#0CC400"/>
<path d="M333.68 57.56C334.519 57.56 335.2 56.8795 335.2 56.04C335.2 55.2005 334.519 54.52 333.68 54.52C332.841 54.52 332.16 55.2005 332.16 56.04C332.16 56.8795 332.841 57.56 333.68 57.56Z" fill="#0CC400"/>
<path d="M329.52 57.15C329.273 57.15 329.031 57.2233 328.826 57.3607C328.62 57.498 328.46 57.6933 328.365 57.9217C328.271 58.1501 328.246 58.4014 328.294 58.6439C328.342 58.8864 328.461 59.1091 328.636 59.2839C328.811 59.4587 329.034 59.5778 329.276 59.626C329.519 59.6742 329.77 59.6495 329.998 59.5549C330.227 59.4603 330.422 59.3 330.559 59.0945C330.697 58.8889 330.77 58.6473 330.77 58.4C330.77 58.0685 330.638 57.7506 330.404 57.5161C330.169 57.2817 329.852 57.15 329.52 57.15Z" fill="#0CC400"/>
<path d="M333.1 46.92C332.644 46.9201 332.199 47.0555 331.82 47.3091C331.441 47.5627 331.147 47.9231 330.973 48.3446C330.8 48.766 330.755 49.2295 330.846 49.6762C330.936 50.1229 331.157 50.5326 331.481 50.8535C331.805 51.1743 332.216 51.3918 332.664 51.4783C333.111 51.5647 333.574 51.5163 333.994 51.3392C334.414 51.162 334.772 50.8641 335.022 50.4833C335.272 50.1024 335.404 49.6558 335.4 49.2C335.395 48.5935 335.15 48.0136 334.719 47.5866C334.289 47.1596 333.707 46.92 333.1 46.92Z" fill="#016EFF"/>
<path d="M343.53 43.9C344.369 43.9 345.05 43.2195 345.05 42.38C345.05 41.5406 344.369 40.86 343.53 40.86C342.691 40.86 342.01 41.5406 342.01 42.38C342.01 43.2195 342.691 43.9 343.53 43.9Z" fill="#016EFF"/>
<path d="M347.69 41.27C347.939 41.272 348.183 41.2 348.392 41.0632C348.6 40.9264 348.763 40.7309 348.86 40.5014C348.957 40.272 348.984 40.0188 348.938 39.7741C348.891 39.5293 348.773 39.3038 348.598 39.1262C348.423 38.9486 348.2 38.8268 347.956 38.7763C347.712 38.7257 347.458 38.7486 347.227 38.8422C346.996 38.9357 346.798 39.0956 346.658 39.3017C346.518 39.5078 346.442 39.7508 346.44 40C346.439 40.1655 346.47 40.3296 346.532 40.483C346.594 40.6363 346.686 40.776 346.802 40.8939C346.918 41.0118 347.056 41.1058 347.209 41.1703C347.361 41.2348 347.525 41.2687 347.69 41.27Z" fill="#016EFF"/>
<path d="M343.53 57.56C344.369 57.56 345.05 56.8795 345.05 56.04C345.05 55.2005 344.369 54.52 343.53 54.52C342.691 54.52 342.01 55.2005 342.01 56.04C342.01 56.8795 342.691 57.56 343.53 57.56Z" fill="#016EFF"/>
<path d="M347.69 57.15C347.525 57.1487 347.362 57.1801 347.21 57.2424C347.058 57.3048 346.919 57.3968 346.803 57.5131C346.687 57.6295 346.595 57.7678 346.532 57.9201C346.47 58.0723 346.439 58.2355 346.44 58.4C346.44 58.6472 346.513 58.8889 346.651 59.0945C346.788 59.3 346.983 59.4602 347.212 59.5549C347.44 59.6495 347.691 59.6742 347.934 59.626C348.176 59.5778 348.399 59.4587 348.574 59.2839C348.749 59.1091 348.868 58.8863 348.916 58.6439C348.964 58.4014 348.939 58.1501 348.845 57.9216C348.75 57.6932 348.59 57.498 348.384 57.3607C348.179 57.2233 347.937 57.15 347.69 57.15Z" fill="#016EFF"/>
<path d="M49.21 98.42C76.3879 98.42 98.42 76.3879 98.42 49.21C98.42 22.0321 76.3879 0 49.21 0C22.0321 0 0 22.0321 0 49.21C0 76.3879 22.0321 98.42 49.21 98.42Z" fill="white"/>
<path d="M79.32 60.21H75.49V64.04H79.32V60.21Z" fill="#FF6600"/>
<path d="M67.69 43.08L69.97 60.24L72.25 43.08H75.84L72.49 64.04H67.41L64.09 43.08H67.69Z" fill="#FF6600"/>
<path d="M21.06 43.08H19.06V45.87H21.06V64.08H24.54V45.84H27V43.08H24.54V38.83C24.5133 38.3162 24.6771 37.8106 25 37.41C25.1857 37.241 25.4037 37.1113 25.6409 37.0288C25.8781 36.9463 26.1295 36.9127 26.38 36.93H27V34.06H25.72C24.398 33.9466 23.078 34.3005 21.99 35.06C21.6288 35.508 21.3605 36.0235 21.2008 36.5764C21.0411 37.1292 20.9933 37.7084 21.06 38.28V43.08Z" fill="#FF6600"/>
<path d="M31.56 43.08H28.07V64.05H31.56V43.08Z" fill="#FF6600"/>
<path d="M47.65 54.75H54.91V48.29C54.91 44.42 53.04 42.83 49.52 42.83C46 42.83 44.13 44.42 44.13 48.33V59C44.13 62.55 46.31 64.38 49.52 64.38C52.73 64.38 54.91 62.86 54.91 59V57.24H51.52V59.24C51.52 60.66 51 61.66 49.52 61.66C48.04 61.66 47.59 60.66 47.59 59.24C47.65 59.24 47.65 54.75 47.65 54.75ZM47.65 47.57C47.65 46.39 47.96 45.15 49.59 45.15C51.22 45.15 51.59 46.36 51.59 47.57V51.92H47.65V47.57Z" fill="#FF6600"/>
<path d="M39.4 52.13C36.77 49.81 36.57 49.5 36.57 47.77C36.57 46.32 36.7 45.43 38.02 45.43C39.34 45.43 39.5 46.29 39.5 47.77V49.71H42.85V46.56C42.85 44.08 40.95 42.83 37.95 42.83C34.95 42.83 33.08 43.83 33.04 47.77V48.19C33.04 49.43 33.04 51.4 36.15 54.06L37.05 54.82C39.33 56.72 39.57 56.96 39.57 59.24C39.57 60.66 39.5 61.73 38.02 61.73C36.54 61.73 36.46 60.66 36.46 60V57.31H32.94V60.07C32.94 63.49 35.15 64.32 38.02 64.32C40.89 64.32 43.09 63.46 43.09 59.07V58.72C43.09 55.65 42.47 54.82 39.4 52.13Z" fill="#FF6600"/>
<path d="M59.6 45.22V43.08H56.43V64H59.85V49.43C59.8103 48.992 59.881 48.5511 60.0557 48.1476C60.2304 47.744 60.5035 47.3907 60.85 47.12C61.5455 46.7011 62.3488 46.4959 63.16 46.53V42.8C61.33 42.8 60.57 43.18 59.64 45.11V45.22H59.6Z" fill="#FF6600"/>
<path d="M208.83 98.42C236.008 98.42 258.04 76.3879 258.04 49.21C258.04 22.0321 236.008 0 208.83 0C181.652 0 159.62 22.0321 159.62 49.21C159.62 76.3879 181.652 98.42 208.83 98.42Z" fill="white"/>
<path d="M220.07 37.18C214.8 37.18 210.07 39.91 210.07 44.96C210.07 50.75 218.42 51.15 218.42 54.06C218.42 55.28 217.02 56.38 214.62 56.38C212.544 56.3667 210.504 55.8411 208.68 54.85L207.59 59.94C209.761 60.8001 212.075 61.2412 214.41 61.24C220.17 61.24 224.71 58.37 224.71 53.24C224.71 47.13 216.32 46.74 216.32 44.04C216.32 43.04 217.47 42.04 219.86 42.04C221.553 42.0625 223.223 42.4407 224.76 43.15L225.82 38.23C223.975 37.5432 222.019 37.2041 220.05 37.23L220.07 37.18ZM171.84 37.55L171.71 38.29C173.15 38.5723 174.562 38.9806 175.93 39.51C178.5 40.44 178.68 40.98 179.12 42.66L183.84 60.85H190.16L199.91 37.55H193.6L187.34 53.39L184.78 40C184.693 39.309 184.347 38.6766 183.813 38.2297C183.279 37.7827 182.596 37.5542 181.9 37.59L171.84 37.55ZM202.45 37.55L197.5 60.85H203.5L208.43 37.55H202.45ZM236.02 37.55C234.57 37.55 233.8 38.33 233.24 39.69L224.42 60.85H230.73L232 57.32H239.69L240.44 60.85H246L241.14 37.55H236.02ZM236.84 43.85L238.72 52.59H233.72L236.87 43.85H236.84Z" fill="#1434CB"/>
<path d="M528.09 98.42C555.268 98.42 577.3 76.3879 577.3 49.21C577.3 22.0321 555.268 0 528.09 0C500.912 0 478.88 22.0321 478.88 49.21C478.88 76.3879 500.912 98.42 528.09 98.42Z" fill="white"/>
<path d="M528.09 75.61C542.67 75.61 554.49 63.7903 554.49 49.21C554.49 34.6297 542.67 22.81 528.09 22.81C513.51 22.81 501.69 34.6297 501.69 49.21C501.69 63.7903 513.51 75.61 528.09 75.61Z" fill="#55F5A3"/>
<path d="M530.46 46.61C530.926 47.0775 531.243 47.6726 531.372 48.3203C531.5 48.9679 531.433 49.639 531.18 50.2488C530.927 50.8585 530.499 51.3796 529.95 51.7462C529.401 52.1128 528.755 52.3085 528.095 52.3085C527.435 52.3085 526.789 52.1128 526.24 51.7462C525.691 51.3796 525.263 50.8585 525.01 50.2488C524.757 49.639 524.69 48.9679 524.819 48.3203C524.947 47.6726 525.264 47.0775 525.73 46.61C526.359 45.9865 527.209 45.6367 528.095 45.6367C528.981 45.6367 529.831 45.9865 530.46 46.61Z" fill="black"/>
<path d="M540.93 52.34C541.385 52.3514 541.838 52.2684 542.26 52.0963C542.681 51.9242 543.063 51.6667 543.38 51.34C543.691 51.0294 543.937 50.6607 544.105 50.2549C544.273 49.8491 544.36 49.4142 544.36 48.975C544.36 48.5358 544.273 48.1008 544.105 47.6951C543.937 47.2893 543.691 46.9206 543.38 46.61C543.069 46.2994 542.701 46.053 542.295 45.885C541.889 45.7169 541.454 45.6304 541.015 45.6304C540.576 45.6304 540.141 45.7169 539.735 45.885C539.329 46.053 538.961 46.2994 538.65 46.61C538.317 46.9311 538.056 47.3189 537.884 47.748C537.711 48.1772 537.632 48.6379 537.65 49.1C537.69 49.5052 537.644 49.9143 537.515 50.3004C537.386 50.6865 537.176 51.0409 536.9 51.34C536.261 51.8734 535.44 52.1386 534.61 52.08C533.8 52.0539 533.01 52.3363 532.4 52.87L532.19 53.06C532.02 53.2334 531.869 53.4245 531.74 53.63C531.364 54.1899 531.178 54.8562 531.21 55.53C531.256 55.9346 531.213 56.3444 531.086 56.7311C530.958 57.1178 530.748 57.4722 530.47 57.77C529.828 58.3066 529.005 58.5753 528.17 58.52C527.717 58.5052 527.267 58.5867 526.848 58.7591C526.429 58.9314 526.051 59.1908 525.74 59.52C525.353 59.9139 525.069 60.3976 524.915 60.928C524.76 61.4583 524.74 62.0187 524.855 62.5589C524.97 63.0991 525.218 63.6023 525.575 64.0234C525.933 64.4445 526.389 64.7703 526.904 64.9718C527.418 65.1732 527.974 65.2439 528.523 65.1776C529.071 65.1112 529.594 64.9099 530.046 64.5917C530.497 64.2734 530.863 63.8482 531.11 63.354C531.356 62.8598 531.477 62.3121 531.46 61.76C531.427 61.3553 531.476 60.9481 531.605 60.5631C531.734 60.178 531.94 59.8232 532.21 59.52C532.509 59.2444 532.864 59.0359 533.25 58.9083C533.636 58.7807 534.046 58.7369 534.45 58.78C535.164 58.8017 535.866 58.5912 536.45 58.18C536.609 58.0642 536.759 57.9372 536.9 57.8C537.229 57.4706 537.485 57.0752 537.65 56.64C537.817 56.2242 537.892 55.7774 537.87 55.33C537.817 54.5122 538.091 53.7069 538.63 53.09C538.928 52.8126 539.283 52.6023 539.669 52.4729C540.055 52.3436 540.465 52.2982 540.87 52.34H540.93Z" fill="black"/>
<path d="M528 39.41C528.455 39.4226 528.908 39.3402 529.33 39.168C529.752 38.9959 530.133 38.7377 530.45 38.41C531.077 37.7841 531.43 36.9346 531.431 36.0485C531.432 35.1624 531.081 34.3122 530.455 33.685C529.829 33.0578 528.98 32.7049 528.094 32.7039C527.207 32.703 526.357 33.0541 525.73 33.68C525.398 34.0015 525.137 34.3894 524.965 34.8184C524.792 35.2475 524.712 35.708 524.73 36.17C524.772 36.5752 524.726 36.9847 524.597 37.371C524.468 37.7574 524.257 38.1116 523.98 38.41C523.344 38.9481 522.521 39.2139 521.69 39.15C520.883 39.1224 520.095 39.4051 519.49 39.94C519.412 40.0014 519.339 40.0682 519.27 40.14C519.097 40.3133 518.943 40.5043 518.81 40.71C518.435 41.2706 518.249 41.9363 518.28 42.61C518.326 43.0147 518.284 43.4246 518.156 43.8114C518.029 44.1982 517.818 44.5526 517.54 44.85C516.899 45.3885 516.075 45.6574 515.24 45.6C514.787 45.5858 514.337 45.6676 513.918 45.84C513.499 46.0123 513.122 46.2713 512.81 46.6C512.423 46.9939 512.139 47.4776 511.985 48.008C511.83 48.5384 511.81 49.0987 511.925 49.6389C512.04 50.1792 512.288 50.6823 512.645 51.1034C513.003 51.5245 513.459 51.8504 513.974 52.0518C514.488 52.2532 515.044 52.3239 515.593 52.2576C516.141 52.1912 516.664 51.9899 517.116 51.6717C517.567 51.3534 517.933 50.9282 518.18 50.434C518.426 49.9398 518.547 49.3921 518.53 48.84C518.5 48.434 518.55 48.0259 518.679 47.6396C518.808 47.2534 519.012 46.8966 519.28 46.59C519.579 46.3144 519.934 46.1059 520.32 45.9783C520.706 45.8507 521.115 45.8069 521.52 45.85C522.234 45.8717 522.936 45.6612 523.52 45.25C523.681 45.1373 523.832 45.0101 523.97 44.87C524.299 44.5406 524.555 44.1452 524.72 43.71C524.907 43.2987 525.002 42.8518 525 42.4C524.967 41.9953 525.016 41.5881 525.145 41.2031C525.274 40.818 525.48 40.4632 525.75 40.16C526.05 39.8848 526.404 39.6758 526.79 39.5466C527.176 39.4174 527.585 39.3708 527.99 39.41H528Z" fill="black"/>
<path d="M287.59 262.11C314.768 262.11 336.8 240.078 336.8 212.9C336.8 185.722 314.768 163.69 287.59 163.69C260.412 163.69 238.38 185.722 238.38 212.9C238.38 240.078 260.412 262.11 287.59 262.11Z" fill="white"/>
<path d="M272.81 207.36C272.802 208.034 272.879 208.706 273.04 209.36C273.236 209.928 273.484 210.477 273.78 211C273.884 211.154 273.943 211.334 273.95 211.52C273.938 211.663 273.889 211.801 273.809 211.92C273.728 212.039 273.618 212.135 273.49 212.2L272.07 213.2C271.9 213.319 271.705 213.398 271.5 213.43C271.237 213.411 270.993 213.288 270.82 213.09C270.493 212.77 270.217 212.403 270 212C269.747 211.576 269.517 211.138 269.31 210.69C268.511 211.679 267.498 212.474 266.349 213.016C265.199 213.558 263.941 213.833 262.67 213.82C261.849 213.859 261.029 213.734 260.258 213.45C259.486 213.167 258.78 212.731 258.18 212.17C257.047 210.92 256.453 209.273 256.528 207.588C256.603 205.902 257.341 204.315 258.58 203.17C260.133 201.917 262.098 201.289 264.09 201.41C264.886 201.416 265.681 201.473 266.47 201.58C267.352 201.702 268.227 201.872 269.09 202.09V200.44C269.09 198.74 268.75 197.55 268.01 196.86C266.943 196.079 265.625 195.723 264.31 195.86C263.489 195.876 262.672 195.973 261.87 196.15C261.02 196.37 260.22 196.6 259.43 196.88C259.174 197.003 258.906 197.1 258.63 197.17C258.521 197.211 258.406 197.231 258.29 197.23C257.95 197.23 257.84 197 257.84 196.54V195.46C257.797 195.191 257.854 194.916 257.999 194.686C258.145 194.456 258.369 194.287 258.63 194.21C259.543 193.788 260.494 193.454 261.47 193.21C262.623 192.912 263.809 192.761 265 192.76C267.67 192.76 269.66 193.38 270.91 194.57C272.16 195.76 272.78 197.64 272.78 200.14V207.42L272.81 207.36ZM263.66 210.82C264.453 210.823 265.241 210.691 265.99 210.43C266.816 210.141 267.558 209.654 268.15 209.01C268.497 208.592 268.749 208.104 268.89 207.58C269.032 206.946 269.109 206.299 269.12 205.65V204.65C268.49 204.48 267.75 204.36 267.07 204.25C266.374 204.159 265.672 204.122 264.97 204.14C263.782 204.036 262.596 204.355 261.62 205.04C261.251 205.364 260.961 205.77 260.774 206.224C260.587 206.678 260.507 207.17 260.54 207.66C260.5 208.095 260.555 208.533 260.702 208.944C260.849 209.355 261.084 209.729 261.39 210.04C262.015 210.588 262.83 210.869 263.66 210.82ZM281.73 213.21C281.428 213.247 281.123 213.164 280.88 212.98C280.647 212.749 280.49 212.452 280.43 212.13L275.14 194.74C275.044 194.442 274.967 194.138 274.91 193.83C274.9 193.753 274.908 193.674 274.933 193.601C274.959 193.527 275 193.46 275.055 193.405C275.11 193.35 275.177 193.309 275.251 193.283C275.324 193.258 275.403 193.25 275.48 193.26H277.7C278.15 193.26 278.44 193.32 278.55 193.49C278.778 193.724 278.934 194.019 279 194.34L282.81 209.23L286.34 194.34C286.45 193.89 286.56 193.61 286.79 193.49C287.071 193.342 287.383 193.263 287.7 193.26H289.52C289.842 193.217 290.168 193.299 290.43 193.49C290.658 193.724 290.814 194.019 290.88 194.34L294.46 209.46L298.38 194.34C298.437 194.014 298.598 193.716 298.84 193.49C299.095 193.333 299.39 193.253 299.69 193.26H301.79C301.867 193.252 301.944 193.262 302.017 193.287C302.09 193.313 302.156 193.355 302.21 193.41C302.265 193.464 302.307 193.53 302.333 193.603C302.358 193.676 302.368 193.753 302.36 193.83C302.371 193.947 302.35 194.064 302.3 194.17C302.285 194.37 302.227 194.565 302.13 194.74L296.68 212.13C296.628 212.458 296.466 212.758 296.22 212.98C295.967 213.142 295.67 213.222 295.37 213.21H293.44C293.118 213.254 292.792 213.172 292.53 212.98C292.301 212.722 292.142 212.408 292.07 212.07L288.61 197.53L285.14 212C285.096 212.345 284.938 212.666 284.69 212.91C284.423 213.09 284.1 213.168 283.78 213.13H281.78L281.73 213.21ZM310.73 213.84C309.565 213.849 308.403 213.714 307.27 213.44C306.364 213.241 305.485 212.935 304.65 212.53C304.375 212.379 304.141 212.163 303.97 211.9C303.885 211.705 303.847 211.492 303.86 211.28V210.14C303.86 209.69 304.03 209.46 304.37 209.46C304.506 209.453 304.642 209.473 304.77 209.52C304.88 209.52 305.11 209.63 305.33 209.74C306.128 210.106 306.968 210.375 307.83 210.54C308.713 210.717 309.61 210.811 310.51 210.82C311.655 210.898 312.798 210.64 313.8 210.08C314.167 209.855 314.47 209.539 314.679 209.162C314.887 208.785 314.995 208.361 314.99 207.93C314.993 207.337 314.772 206.766 314.37 206.33C313.708 205.774 312.934 205.369 312.1 205.14L308.86 204.14C307.461 203.772 306.21 202.978 305.28 201.87C304.556 200.944 304.155 199.806 304.14 198.63C304.128 197.756 304.345 196.894 304.77 196.13C305.171 195.39 305.731 194.747 306.41 194.25C307.111 193.721 307.9 193.318 308.74 193.06C309.664 192.781 310.625 192.646 311.59 192.66C312.102 192.642 312.615 192.679 313.12 192.77C313.63 192.83 314.12 192.94 314.6 193L315.9 193.34C316.244 193.446 316.578 193.579 316.9 193.74C317.184 193.849 317.423 194.05 317.58 194.31C317.727 194.529 317.807 194.786 317.81 195.05V196.13C317.81 196.58 317.64 196.86 317.3 196.86C317.003 196.814 316.716 196.719 316.45 196.58C315.085 195.999 313.614 195.709 312.13 195.73C311.095 195.69 310.065 195.903 309.13 196.35C308.791 196.559 308.513 196.854 308.325 197.205C308.137 197.557 308.045 197.952 308.06 198.35C308.047 198.649 308.102 198.947 308.219 199.222C308.337 199.497 308.515 199.743 308.74 199.94C309.472 200.535 310.325 200.962 311.24 201.19L314.42 202.19C315.774 202.529 316.988 203.284 317.89 204.35C318.556 205.252 318.907 206.349 318.89 207.47C318.89 208.371 318.696 209.261 318.32 210.08C317.891 210.879 317.3 211.579 316.586 212.137C315.872 212.695 315.049 213.098 314.17 213.32C313.048 213.66 311.882 213.835 310.71 213.84H310.73Z" fill="#252F3E"/>
<path fill-rule="evenodd" clip-rule="evenodd" d="M315 224.8C307.62 230.26 296.82 233.16 287.56 233.16C275.196 233.236 263.253 228.672 254.09 220.37C253.41 219.74 254.03 218.89 254.83 219.37C263.724 224.516 273.69 227.529 283.945 228.171C294.2 228.813 304.464 227.067 313.93 223.07C315.09 222.53 316.17 223.89 315 224.8Z" fill="#FF9900"/>
<path fill-rule="evenodd" clip-rule="evenodd" d="M318 221.28C317 220.09 311.75 220.71 309.31 221C308.57 221.11 308.46 220.43 309.14 220C313.4 217.05 320.33 217.9 321.14 218.87C321.95 219.84 320.91 226.82 316.93 230.17C316.31 230.69 315.74 230.4 316.02 229.72C317 227.47 319 222.47 318 221.28Z" fill="#FF9900"/>
<path d="M290.97 413.91C318.148 413.91 340.18 391.878 340.18 364.7C340.18 337.522 318.148 315.49 290.97 315.49C263.792 315.49 241.76 337.522 241.76 364.7C241.76 391.878 263.792 413.91 290.97 413.91Z" fill="white"/>
<path d="M310.09 378.68L298.83 372.18C298.07 371.741 297.167 371.623 296.32 371.849C295.472 372.076 294.749 372.63 294.31 373.39C293.956 373.993 293.805 374.694 293.88 375.39V388.1C293.926 388.942 294.294 389.735 294.907 390.315C295.519 390.895 296.331 391.218 297.175 391.218C298.019 391.218 298.831 390.895 299.443 390.315C300.056 389.735 300.424 388.942 300.47 388.1V380.79L306.78 384.43C307.538 384.84 308.426 384.937 309.255 384.703C310.084 384.468 310.789 383.92 311.22 383.174C311.651 382.428 311.774 381.543 311.563 380.708C311.352 379.872 310.824 379.152 310.09 378.7" fill="#29B5E8"/>
<path d="M282.08 364.74C282.09 364.165 281.946 363.597 281.663 363.096C281.38 362.595 280.968 362.179 280.47 361.89L269.21 355.38C268.466 354.953 267.583 354.838 266.754 355.061C265.925 355.284 265.219 355.827 264.79 356.57C264.576 356.94 264.438 357.348 264.383 357.772C264.328 358.195 264.358 358.625 264.471 359.037C264.583 359.449 264.776 359.835 265.039 360.172C265.301 360.509 265.628 360.79 266 361L272.49 364.75L266 368.48C265.257 368.907 264.715 369.612 264.492 370.439C264.269 371.266 264.383 372.147 264.81 372.89C265.239 373.633 265.945 374.176 266.774 374.399C267.603 374.622 268.486 374.507 269.23 374.08L280.49 367.58C280.984 367.289 281.392 366.874 281.675 366.375C281.957 365.877 282.104 365.313 282.1 364.74" fill="#29B5E8"/>
<path d="M271.76 350.78L283.02 357.28C283.649 357.649 284.382 357.8 285.105 357.709C285.828 357.619 286.501 357.292 287.02 356.78C287.358 356.472 287.628 356.097 287.812 355.678C287.996 355.26 288.091 354.807 288.09 354.35V341.35C288.044 340.507 287.676 339.715 287.063 339.135C286.451 338.555 285.639 338.232 284.795 338.232C283.951 338.232 283.14 338.555 282.527 339.135C281.914 339.715 281.546 340.507 281.5 341.35V348.77L275.1 345.08C274.723 344.848 274.304 344.694 273.866 344.626C273.429 344.559 272.982 344.58 272.553 344.689C272.124 344.797 271.721 344.99 271.368 345.257C271.015 345.524 270.719 345.859 270.497 346.242C270.276 346.625 270.134 347.049 270.079 347.488C270.024 347.928 270.058 348.373 270.179 348.799C270.299 349.225 270.504 349.622 270.781 349.968C271.057 350.313 271.401 350.6 271.79 350.81" fill="#29B5E8"/>
<path d="M297.08 365.27C297.064 365.558 296.951 365.833 296.76 366.05L292.3 370.51C292.084 370.703 291.809 370.816 291.52 370.83H290.39C290.101 370.816 289.826 370.703 289.61 370.51L285.14 366.05C284.949 365.833 284.836 365.558 284.82 365.27V364.13C284.832 363.844 284.945 363.571 285.14 363.36L289.61 358.89C289.826 358.697 290.101 358.584 290.39 358.57H291.52C291.809 358.584 292.084 358.697 292.3 358.89L296.76 363.36C296.955 363.571 297.068 363.844 297.08 364.13V365.27ZM293.08 364.72C293.067 364.507 292.987 364.304 292.85 364.14L291.53 362.83C291.373 362.688 291.172 362.603 290.96 362.59H290.91C290.698 362.603 290.497 362.688 290.34 362.83L289 364.1C288.859 364.261 288.778 364.466 288.77 364.68C288.778 364.891 288.86 365.092 289 365.25L290.32 366.57C290.477 366.712 290.678 366.797 290.89 366.81H291C291.212 366.797 291.413 366.712 291.57 366.57L292.89 365.25C293.01 365.097 293.083 364.913 293.1 364.72H293.08Z" fill="#29B5E8"/>
<path d="M298.83 357.28L310.09 350.78C310.823 350.328 311.352 349.608 311.563 348.772C311.774 347.937 311.651 347.052 311.22 346.306C310.789 345.56 310.084 345.012 309.255 344.777C308.426 344.543 307.538 344.64 306.78 345.05L300.47 348.69V341.32C300.424 340.478 300.056 339.685 299.443 339.105C298.83 338.525 298.019 338.202 297.175 338.202C296.331 338.202 295.519 338.525 294.907 339.105C294.294 339.685 293.926 340.478 293.88 341.32V354.09C293.82 354.696 293.929 355.306 294.194 355.854C294.459 356.402 294.869 356.867 295.381 357.196C295.893 357.526 296.485 357.708 297.094 357.723C297.702 357.738 298.303 357.584 298.83 357.28Z" fill="#29B5E8"/>
<path d="M285.28 371.79C284.504 371.646 283.702 371.784 283.02 372.18L271.76 378.68C271.371 378.89 271.027 379.177 270.751 379.522C270.474 379.867 270.269 380.265 270.149 380.691C270.028 381.117 269.994 381.562 270.049 382.001C270.104 382.441 270.246 382.864 270.467 383.248C270.689 383.631 270.985 383.966 271.338 384.233C271.691 384.5 272.094 384.693 272.523 384.801C272.952 384.91 273.399 384.931 273.836 384.864C274.274 384.796 274.693 384.642 275.07 384.41L281.47 380.72V388.08C281.516 388.922 281.884 389.715 282.497 390.295C283.109 390.875 283.921 391.198 284.765 391.198C285.609 391.198 286.421 390.875 287.033 390.295C287.646 389.715 288.014 388.922 288.06 388.08V375.08C288.058 374.295 287.778 373.537 287.269 372.94C286.759 372.342 286.055 371.946 285.28 371.82" fill="#29B5E8"/>
<path d="M317.13 356.53C316.913 356.153 316.625 355.822 316.28 355.557C315.935 355.292 315.542 355.098 315.122 354.985C314.701 354.873 314.263 354.845 313.832 354.902C313.401 354.959 312.986 355.102 312.61 355.32L301.35 361.82C300.844 362.119 300.425 362.544 300.134 363.055C299.843 363.565 299.689 364.142 299.689 364.73C299.689 365.318 299.843 365.895 300.134 366.405C300.425 366.916 300.844 367.341 301.35 367.64L312.61 374.14C312.987 374.382 313.409 374.545 313.851 374.619C314.293 374.693 314.746 374.677 315.181 374.571C315.616 374.465 316.026 374.271 316.384 374.002C316.743 373.734 317.043 373.395 317.266 373.006C317.49 372.618 317.632 372.188 317.685 371.744C317.738 371.299 317.7 370.847 317.573 370.418C317.446 369.988 317.233 369.588 316.947 369.243C316.662 368.898 316.309 368.615 315.91 368.41L309.54 364.73L315.91 361.05C316.287 360.833 316.618 360.545 316.883 360.2C317.148 359.856 317.343 359.462 317.456 359.043C317.57 358.623 317.599 358.185 317.543 357.754C317.487 357.323 317.347 356.907 317.13 356.53Z" fill="#29B5E8"/>
<path d="M49.21 603.66C76.3879 603.66 98.42 581.628 98.42 554.45C98.42 527.272 76.3879 505.24 49.21 505.24C22.0321 505.24 0 527.272 0 554.45C0 581.628 22.0321 603.66 49.21 603.66Z" fill="white"/>
<path d="M15.14 560.77L10.82 550.05H12.61L15.86 558.65L19.09 550.05H20.86L16.6 560.77H15.14Z" fill="#ED1C25"/>
<path d="M24.17 560.77V550.05H31.39V551.54H25.87V554.6H30.66V556H25.87V559.27H31.53V560.77H24.17Z" fill="#ED1C25"/>
<path d="M35.81 560.77V550.05H40.49C40.9556 550.039 41.4163 550.146 41.83 550.36C42.234 550.547 42.5924 550.82 42.88 551.16C43.1735 551.485 43.4041 551.861 43.56 552.27C43.7369 552.673 43.8255 553.11 43.82 553.55C43.8173 553.906 43.7634 554.26 43.66 554.6C43.5682 554.928 43.4229 555.239 43.23 555.52C43.0458 555.796 42.8236 556.046 42.57 556.26C42.3131 556.464 42.0219 556.619 41.71 556.72L44.26 560.72H42.36L40 557H37.53V560.74L35.81 560.77ZM37.51 555.55H40.51C40.7386 555.551 40.9644 555.5 41.17 555.4C41.3722 555.295 41.5443 555.14 41.67 554.95C41.8144 554.755 41.929 554.539 42.01 554.31C42.0836 554.057 42.1207 553.794 42.12 553.53C42.1224 553.264 42.0784 553 41.99 552.75C41.8946 552.522 41.7702 552.307 41.62 552.11C41.4696 551.929 41.2821 551.782 41.07 551.68C40.8704 551.583 40.6518 551.532 40.43 551.53H37.53V555.53L37.51 555.55Z" fill="#ED1C25"/>
<path d="M46.83 560.77L51.15 550.05H52.54L56.86 560.77H55.07L53.92 557.85H49.77L48.66 560.77H46.83ZM51.83 551.93L50.04 556.61H53.55L51.83 551.93Z" fill="#ED1C25"/>
<path d="M59.93 560.77V550.05H67.1V551.54H61.63V554.74H66.2V556.16H61.63V560.77H59.93Z" fill="#ED1C25"/>
<path d="M80.12 553.22V560.77H78.43V550.05H79.75L85.88 557.77V550.07H87.59V560.77H86.19L80.12 553.22Z" fill="#ED1C25"/>
<path d="M71.67 554.08V560.77H73.37V554.08C73.0949 554.145 72.8127 554.175 72.53 554.17C72.2404 554.186 71.9501 554.155 71.67 554.08Z" fill="#ED1C25"/>
<path d="M72.53 548.12C71.898 548.123 71.2875 548.35 70.8072 548.761C70.327 549.172 70.0081 549.74 69.9073 550.364C69.8065 550.988 69.9304 551.628 70.2568 552.169C70.5832 552.71 71.0911 553.118 71.69 553.32C71.9611 553.409 72.2448 553.453 72.53 553.45C72.8145 553.443 73.0968 553.4 73.37 553.32C73.9689 553.118 74.4768 552.71 74.8032 552.169C75.1297 551.628 75.2535 550.988 75.1527 550.364C75.0519 549.74 74.733 549.172 74.2528 548.761C73.7725 548.35 73.1621 548.123 72.53 548.12ZM72.53 552.12C72.2701 552.122 72.0154 552.047 71.7985 551.903C71.5815 551.76 71.4121 551.556 71.3117 551.316C71.2113 551.076 71.1845 550.812 71.2347 550.557C71.285 550.302 71.4099 550.068 71.5937 549.884C71.7775 549.7 72.0119 549.575 72.2669 549.525C72.522 549.474 72.7862 549.501 73.026 549.602C73.2657 549.702 73.4702 549.871 73.6134 550.088C73.7566 550.305 73.832 550.56 73.83 550.82C73.8274 551.164 73.6896 551.493 73.4464 551.736C73.2031 551.98 72.874 552.117 72.53 552.12Z" fill="#364754"/>
<path d="M368.46 603.66C395.638 603.66 417.67 581.628 417.67 554.45C417.67 527.272 395.638 505.24 368.46 505.24C341.282 505.24 319.25 527.272 319.25 554.45C319.25 581.628 341.282 603.66 368.46 603.66Z" fill="white"/>
<path d="M369.3 529.23H367.62V539.32H369.3V529.23Z" fill="#78909C"/>
<path d="M373.51 533.43H363.42V535.11H373.51V533.43Z" fill="#78909C"/>
<path d="M389.48 549.4H387.8V559.49H389.48V549.4Z" fill="#5C6BC0"/>
<path d="M393.68 553.6H383.59V555.28H393.68V553.6Z" fill="#5C6BC0"/>
<path d="M349.13 549.4H347.45V559.49H349.13V549.4Z" fill="#78909C"/>
<path d="M353.33 553.6H343.24V555.28H353.33V553.6Z" fill="#78909C"/>
<path d="M369.3 569.58H367.62V579.67H369.3V569.58Z" fill="#5C6BC0"/>
<path d="M373.51 573.78H363.42V575.46H373.51V573.78Z" fill="#5C6BC0"/>
<path d="M377.98 552.76H358.93V556.12H377.98V552.76Z" fill="#E8762D"/>
<path d="M370.14 544.92H366.78V563.97H370.14V544.92Z" fill="#E8762D"/>
<path d="M356.69 534.83H354.45V550.52H356.69V534.83Z" fill="#FFA000"/>
<path d="M363.42 541.56H347.73V543.8H363.42V541.56Z" fill="#FFA000"/>
<path d="M382.47 534.83H380.23V550.52H382.47V534.83Z" fill="#607D8B"/>
<path d="M389.2 541.56H373.51V543.8H389.2V541.56Z" fill="#607D8B"/>
<path d="M356.69 558.37H354.45V574.06H356.69V558.37Z" fill="#C62828"/>
<path d="M363.42 565.09H347.73V567.33H363.42V565.09Z" fill="#C62828"/>
<path d="M382.47 558.37H380.23V574.06H382.47V558.37Z" fill="#0D47A1"/>
<path d="M389.2 565.09H373.51V567.33H389.2V565.09Z" fill="#0D47A1"/>
<path d="M208.83 603.66C236.008 603.66 258.04 581.628 258.04 554.45C258.04 527.272 236.008 505.24 208.83 505.24C181.652 505.24 159.62 527.272 159.62 554.45C159.62 581.628 181.652 603.66 208.83 603.66Z" fill="white"/>
<path d="M180.08 547.48V553.35H174.68V547.48H172.12V561.48H174.68V555.8H180.08V561.48H182.64V547.48H180.08ZM190.83 557C190.83 557.562 190.607 558.102 190.209 558.499C189.811 558.897 189.272 559.12 188.71 559.12C188.148 559.12 187.609 558.897 187.211 558.499C186.813 558.102 186.59 557.562 186.59 557V551H184.16V557C184.215 558.169 184.718 559.271 185.564 560.079C186.41 560.886 187.535 561.337 188.705 561.337C189.875 561.337 191 560.886 191.846 560.079C192.692 559.271 193.195 558.169 193.25 557V551H190.83V557ZM208.83 551.61C208.81 551.385 208.841 551.159 208.92 550.947C209 550.736 209.126 550.546 209.289 550.39C209.453 550.234 209.649 550.117 209.864 550.048C210.079 549.979 210.306 549.959 210.53 549.99C211.416 550.1 212.23 550.53 212.82 551.2L214.41 549.33C213.956 548.779 213.389 548.331 212.747 548.017C212.106 547.703 211.404 547.53 210.69 547.51C208.05 547.51 206.15 549.05 206.15 551.61C206.15 556.36 211.95 554.85 211.95 557.51C211.914 557.936 211.718 558.333 211.4 558.619C211.082 558.905 210.667 559.059 210.24 559.05C209.725 559.049 209.218 558.914 208.77 558.66C208.322 558.406 207.946 558.041 207.68 557.6L205.92 559.44C206.408 560.09 207.041 560.617 207.768 560.98C208.495 561.343 209.297 561.531 210.11 561.53C212.61 561.53 214.62 559.97 214.62 557.53C214.62 552.26 208.82 553.9 208.82 551.61M244.7 559.29C243.27 559.29 242.86 558.67 242.86 557.72V553.51H245.09V551.38H242.86V548.56L240.4 549.67V558.24C240.4 560.43 241.91 561.54 243.98 561.54C244.315 561.54 244.649 561.513 244.98 561.46L245.58 559.25C245.31 559.25 245 559.25 244.73 559.25M200.07 551C199.539 550.978 199.009 551.069 198.516 551.268C198.023 551.466 197.578 551.767 197.21 552.15V547.54H194.78V556.09C194.742 556.769 194.84 557.448 195.068 558.088C195.296 558.728 195.65 559.316 196.108 559.818C196.566 560.32 197.12 560.726 197.737 561.011C198.353 561.296 199.021 561.456 199.7 561.48C200.4 561.492 201.095 561.366 201.747 561.109C202.398 560.852 202.992 560.469 203.495 559.983C203.999 559.496 204.401 558.915 204.68 558.273C204.959 557.631 205.108 556.94 205.12 556.24C205.132 555.565 205.011 554.894 204.763 554.266C204.516 553.638 204.147 553.065 203.678 552.579C203.209 552.093 202.649 551.705 202.03 551.435C201.411 551.166 200.745 551.022 200.07 551.01M200.07 559.01C199.524 559.01 198.991 558.848 198.537 558.545C198.083 558.242 197.729 557.811 197.52 557.306C197.311 556.802 197.257 556.247 197.363 555.712C197.47 555.176 197.732 554.684 198.118 554.298C198.504 553.912 198.996 553.65 199.532 553.543C200.067 553.437 200.622 553.491 201.126 553.7C201.631 553.909 202.062 554.263 202.365 554.717C202.668 555.17 202.83 555.704 202.83 556.25C202.83 556.982 202.539 557.684 202.022 558.202C201.504 558.719 200.802 559.01 200.07 559.01ZM226.49 556.09C226.48 555.39 226.331 554.699 226.053 554.057C225.774 553.415 225.371 552.834 224.868 552.348C224.364 551.862 223.769 551.48 223.117 551.225C222.466 550.969 221.77 550.845 221.07 550.86C220.391 550.884 219.724 551.044 219.108 551.329C218.492 551.615 217.939 552.02 217.481 552.522C217.024 553.024 216.672 553.613 216.445 554.253C216.218 554.893 216.121 555.572 216.16 556.25V564.81H218.59V560.19C218.957 560.571 219.401 560.869 219.893 561.066C220.384 561.262 220.911 561.352 221.44 561.33C222.116 561.318 222.783 561.173 223.403 560.904C224.022 560.634 224.583 560.244 225.052 559.758C225.521 559.271 225.89 558.696 226.136 558.067C226.383 557.438 226.503 556.766 226.49 556.09ZM224.19 556.09C224.19 556.822 223.899 557.524 223.382 558.042C222.864 558.559 222.162 558.85 221.43 558.85C220.698 558.85 219.996 558.559 219.478 558.042C218.961 557.524 218.67 556.822 218.67 556.09C218.67 555.358 218.961 554.656 219.478 554.138C219.996 553.621 220.698 553.33 221.43 553.33C222.162 553.33 222.864 553.621 223.382 554.138C223.899 554.656 224.19 555.358 224.19 556.09Z" fill="#33475B"/>
<path d="M234.33 550.79V548.35C234.653 548.198 234.926 547.958 235.117 547.657C235.308 547.356 235.41 547.007 235.41 546.65C235.41 546.151 235.212 545.671 234.86 545.317C234.508 544.963 234.03 544.763 233.53 544.76H233.48C232.979 544.76 232.498 544.959 232.144 545.314C231.789 545.668 231.59 546.149 231.59 546.65C231.594 547.007 231.698 547.356 231.89 547.657C232.083 547.958 232.357 548.198 232.68 548.35V550.79C231.752 550.931 230.879 551.318 230.15 551.91L223.45 546.69C223.493 546.517 223.516 546.339 223.52 546.16C223.522 545.74 223.399 545.329 223.168 544.98C222.936 544.63 222.605 544.356 222.218 544.194C221.831 544.032 221.404 543.989 220.993 544.07C220.581 544.15 220.202 544.351 219.905 544.647C219.607 544.944 219.404 545.321 219.322 545.733C219.239 546.144 219.28 546.571 219.44 546.959C219.601 547.347 219.872 547.679 220.221 547.912C220.57 548.145 220.98 548.27 221.4 548.27C221.752 548.263 222.096 548.166 222.4 547.99L229 553.12C228.412 554.014 228.105 555.063 228.12 556.132C228.134 557.202 228.468 558.243 229.08 559.12L227.08 561.12C226.915 561.069 226.743 561.042 226.57 561.04C226.226 561.042 225.891 561.146 225.606 561.338C225.321 561.53 225.1 561.803 224.97 562.121C224.839 562.439 224.806 562.789 224.875 563.126C224.943 563.462 225.109 563.772 225.353 564.014C225.597 564.256 225.907 564.421 226.244 564.487C226.581 564.554 226.931 564.519 227.248 564.387C227.566 564.255 227.837 564.032 228.027 563.746C228.218 563.46 228.32 563.124 228.32 562.78C228.315 562.61 228.285 562.441 228.23 562.28L230.23 560.28C231.355 561.146 232.777 561.53 234.184 561.347C235.592 561.164 236.869 560.43 237.735 559.305C238.601 558.181 238.985 556.758 238.802 555.351C238.619 553.943 237.885 552.666 236.76 551.8C236.04 551.251 235.194 550.891 234.3 550.75M233.48 558.75C233.108 558.781 232.733 558.735 232.38 558.616C232.026 558.497 231.7 558.308 231.421 558.059C231.143 557.81 230.918 557.507 230.761 557.168C230.604 556.83 230.517 556.463 230.506 556.089C230.495 555.716 230.56 555.345 230.698 554.997C230.835 554.65 231.042 554.335 231.305 554.07C231.568 553.805 231.883 553.597 232.229 553.458C232.576 553.318 232.947 553.251 233.32 553.26H233.48C234.179 553.302 234.836 553.61 235.317 554.12C235.797 554.63 236.064 555.304 236.064 556.005C236.064 556.706 235.797 557.38 235.317 557.89C234.836 558.4 234.179 558.708 233.48 558.75Z" fill="#FF7A59"/>
<path d="M528.09 603.66C555.268 603.66 577.3 581.628 577.3 554.45C577.3 527.272 555.268 505.24 528.09 505.24C500.912 505.24 478.88 527.272 478.88 554.45C478.88 581.628 500.912 603.66 528.09 603.66Z" fill="white"/>
<path d="M542.79 533.26C542.42 532.031 541.666 530.953 540.638 530.185C539.61 529.416 538.363 528.998 537.08 528.99H535.35C533.961 529 532.618 529.492 531.551 530.382C530.484 531.272 529.759 532.505 529.5 533.87L526.5 550.07L527.24 547.55C527.608 546.319 528.362 545.239 529.39 544.469C530.417 543.698 531.665 543.278 532.95 543.27H543.04L547.27 544.92L551.35 543.27H550.16C548.877 543.262 547.63 542.844 546.602 542.075C545.574 541.307 544.82 540.229 544.45 539L542.79 533.26Z" fill="url(#paint0_radial_177_4)"/>
<path d="M517.34 576.08C517.695 577.32 518.444 578.411 519.474 579.187C520.505 579.963 521.76 580.382 523.05 580.38H526.74C528.296 580.381 529.791 579.778 530.91 578.697C532.029 577.617 532.686 576.145 532.74 574.59L533.14 558.96L532.3 561.83C531.932 563.061 531.178 564.141 530.15 564.911C529.123 565.682 527.875 566.102 526.59 566.11H516.37L512.74 564.11L508.81 566.11H510C511.286 566.119 512.535 566.54 513.563 567.313C514.591 568.085 515.344 569.167 515.71 570.4L517.35 576.08H517.34Z" fill="url(#paint1_radial_177_4)"/>
<path d="M536.83 529H516.22C510.33 529 506.8 536.78 504.45 544.56C501.66 553.78 498 566.11 508.57 566.11H517.46C518.752 566.104 520.007 565.682 521.04 564.905C522.072 564.129 522.826 563.04 523.19 561.8C525.29 554.467 527.42 547.133 529.58 539.8C530.66 536.14 531.58 533.01 532.94 531.05C533.37 530.415 533.95 529.896 534.629 529.539C535.307 529.181 536.063 528.996 536.83 529Z" fill="url(#paint2_linear_177_4)"/>
<path d="M536.83 529H516.22C510.33 529 506.8 536.78 504.45 544.56C501.66 553.78 498 566.11 508.57 566.11H517.46C518.752 566.104 520.007 565.682 521.04 564.905C522.072 564.129 522.826 563.04 523.19 561.8C525.29 554.467 527.42 547.133 529.58 539.8C530.66 536.14 531.58 533.01 532.94 531.05C533.37 530.415 533.95 529.896 534.629 529.539C535.307 529.181 536.063 528.996 536.83 529Z" fill="url(#paint3_linear_177_4)"/>
<path d="M522.69 580.38H543.3C549.19 580.38 552.72 572.6 555.07 564.82C557.86 555.6 561.51 543.27 550.95 543.27H542.05C540.757 543.267 539.498 543.686 538.466 544.464C537.433 545.242 536.683 546.336 536.33 547.58C534.23 554.913 532.1 562.247 529.94 569.58C528.86 573.24 527.94 576.37 526.58 578.33C526.15 578.965 525.57 579.484 524.891 579.842C524.213 580.199 523.457 580.384 522.69 580.38Z" fill="url(#paint4_radial_177_4)"/>
<path d="M522.69 580.38H543.3C549.19 580.38 552.72 572.6 555.07 564.82C557.86 555.6 561.51 543.27 550.95 543.27H542.05C540.757 543.267 539.498 543.686 538.466 544.464C537.433 545.242 536.683 546.336 536.33 547.58C534.23 554.913 532.1 562.247 529.94 569.58C528.86 573.24 527.94 576.37 526.58 578.33C526.15 578.965 525.57 579.484 524.891 579.842C524.213 580.199 523.457 580.384 522.69 580.38Z" fill="url(#paint5_linear_177_4)"/>
<defs>
<radialGradient id="paint0_radial_177_4" cx="0" cy="0" r="1" gradientTransform="matrix(-14.0288 -17.1392 -16.1152 13.1968 545.456 560.415)" gradientUnits="userSpaceOnUse">
<stop offset="0.1" stop-color="#00AEFF"/>
<stop offset="0.77" stop-color="#2253CE"/>
<stop offset="1" stop-color="#0736C4"/>
</radialGradient>
<radialGradient id="paint1_radial_177_4" cx="0" cy="0" r="1" gradientTransform="matrix(12.6464 16.0896 15.616 -12.2624 522.04 592.909)" gradientUnits="userSpaceOnUse">
<stop stop-color="#FFB657"/>
<stop offset="0.63" stop-color="#FF5F3D"/>
<stop offset="0.92" stop-color="#C02B3C"/>
</radialGradient>
<linearGradient id="paint2_linear_177_4" x1="518.22" y1="533.21" x2="521.16" y2="567.23" gradientUnits="userSpaceOnUse">
<stop offset="0.16" stop-color="#0D91E1"/>
<stop offset="0.49" stop-color="#52B471"/>
<stop offset="0.65" stop-color="#98BD42"/>
<stop offset="0.94" stop-color="#FFC800"/>
</linearGradient>
<linearGradient id="paint3_linear_177_4" x1="518.51" y1="528.96" x2="520.12" y2="566.06" gradientUnits="userSpaceOnUse">
<stop stop-color="#3DCBFF"/>
<stop offset="0.25" stop-color="#0588F7" stop-opacity="0"/>
</linearGradient>
<radialGradient id="paint4_radial_177_4" cx="0" cy="0" r="1" gradientTransform="matrix(-16.2176 46.3872 55.5648 19.4304 548.257 519.53)" gradientUnits="userSpaceOnUse">
<stop offset="0.07" stop-color="#8C48FF"/>
<stop offset="0.5" stop-color="#F2598A"/>
<stop offset="0.9" stop-color="#FFB152"/>
</radialGradient>
<linearGradient id="paint5_linear_177_4" x1="540.41" y1="540.98" x2="540.39" y2="551.08" gradientUnits="userSpaceOnUse">
<stop offset="0.06" stop-color="#F8ADFA"/>
<stop offset="0.71" stop-color="#A86EDD" stop-opacity="0"/>
</linearGradient>
</defs>
</svg>
