<svg width="47" height="44" viewBox="0 0 47 44" fill="none" xmlns="http://www.w3.org/2000/svg">
<path d="M15.4839 0.0700684H29.2539L14.9739 42.3301C14.8258 42.7667 14.5466 43.147 14.1743 43.419C13.8021 43.691 13.3549 43.8416 12.8939 43.8501H2.21395C1.63723 43.8321 1.0897 43.5923 0.685442 43.1805C0.281187 42.7688 0.0513926 42.217 0.0439453 41.6401C0.0494475 41.4021 0.0898801 41.1663 0.163946 40.9401L13.4539 1.52007C13.594 1.09968 13.8622 0.733743 14.2209 0.473663C14.5797 0.213584 15.0109 0.0724412 15.4539 0.0700684H15.4839Z" fill="url(#paint0_linear_118_488)"/>
<path d="M35.5039 28.4301H13.7139C13.4487 28.4301 13.1943 28.5354 13.0068 28.7229C12.8192 28.9105 12.7139 29.1648 12.7139 29.4301C12.7217 29.7096 12.832 29.9765 13.0239 30.1801L27.0439 43.2801C27.4541 43.6589 27.9956 43.8634 28.5539 43.8501H40.8739L35.5039 28.4301Z" fill="#0078D4"/>
<path d="M15.4839 0.0700684C15.0228 0.0772267 14.575 0.225913 14.2012 0.495998C13.8273 0.766083 13.5455 1.14452 13.3939 1.58007L0.123904 40.9401C-0.0681402 41.4851 -0.0359244 42.0841 0.213469 42.6054C0.462862 43.1267 0.909025 43.5276 1.4539 43.7201C1.70026 43.7973 1.95589 43.841 2.2139 43.8501H13.2139C13.6219 43.7704 14.0033 43.5894 14.3231 43.3238C14.6428 43.0582 14.8907 42.7165 15.0439 42.3301L17.7039 34.5001L27.1739 43.3401C27.5644 43.6656 28.0556 43.8458 28.5639 43.8501H40.8739L35.5039 28.4301H19.7739L29.3839 0.0700684H15.4839Z" fill="url(#paint1_linear_118_488)"/>
<path d="M33.044 1.52009C32.8934 1.08503 32.6135 0.706339 32.2418 0.434699C31.8701 0.163059 31.4243 0.011426 30.964 8.86596e-05H15.604C16.0693 -0.00411632 16.5236 0.141356 16.8999 0.415042C17.2763 0.688728 17.5546 1.07613 17.694 1.52009L31.044 40.9401C31.2241 41.4957 31.1768 42.1001 30.9126 42.621C30.6484 43.1419 30.1887 43.5371 29.634 43.7201C29.4084 43.798 29.1725 43.8418 28.934 43.8501H44.294C44.8777 43.8423 45.4353 43.607 45.8481 43.1942C46.2609 42.7814 46.4962 42.2238 46.504 41.6401C46.4954 41.4016 46.4516 41.1657 46.374 40.9401L33.044 1.52009Z" fill="url(#paint2_linear_118_488)"/>
<defs>
<linearGradient id="paint0_linear_118_488" x1="20.5239" y1="3.30007" x2="6.24394" y2="45.4901" gradientUnits="userSpaceOnUse">
<stop stop-color="#114A8B"/>
<stop offset="1" stop-color="#0669BC"/>
</linearGradient>
<linearGradient id="paint1_linear_118_488" x1="24.9939" y1="22.9801" x2="21.6839" y2="24.0901" gradientUnits="userSpaceOnUse">
<stop stop-opacity="0.3"/>
<stop offset="0.07" stop-opacity="0.2"/>
<stop offset="0.32" stop-opacity="0.1"/>
<stop offset="0.62" stop-opacity="0.05"/>
<stop offset="1" stop-opacity="0"/>
</linearGradient>
<linearGradient id="paint2_linear_118_488" x1="23.244" y1="2.04009" x2="38.914" y2="43.8001" gradientUnits="userSpaceOnUse">
<stop stop-color="#3CCBF4"/>
<stop offset="1" stop-color="#2892DF"/>
</linearGradient>
</defs>
</svg>
