<svg width="82" height="27" viewBox="0 0 82 27" fill="none" xmlns="http://www.w3.org/2000/svg">
<path d="M11.5401 6.00002H0.240069V9.64002H7.67007C7.88224 9.64002 8.08573 9.7243 8.23575 9.87433C8.38578 10.0244 8.47007 10.2278 8.47007 10.44V16.82H6.83007C6.61524 16.82 6.40922 16.7347 6.25731 16.5828C6.10541 16.4309 6.02007 16.2248 6.02007 16.01V11.41H2.91007C2.52718 11.4074 2.14758 11.4808 1.79332 11.6261C1.43906 11.7714 1.11721 11.9857 0.846461 12.2564C0.575712 12.5272 0.361463 12.849 0.216164 13.2033C0.0708642 13.5575 -0.00258935 13.9371 6.96944e-05 14.32V17.55C-0.00126145 17.9321 0.073173 18.3106 0.219067 18.6637C0.36496 19.0168 0.579418 19.3375 0.850034 19.6071C1.12065 19.8768 1.44205 20.0902 1.79565 20.2349C2.14925 20.3795 2.52803 20.4527 2.91007 20.45H14.4501V8.93002C14.454 8.54583 14.3816 8.16467 14.2371 7.8087C14.0925 7.45273 13.8786 7.12903 13.6078 6.85642C13.3371 6.58382 13.0149 6.36772 12.6599 6.22071C12.3049 6.07369 11.9243 5.99867 11.5401 6.00002Z" fill="#35B454"/>
<path d="M25.34 16.84H23.73C23.5152 16.84 23.3091 16.7547 23.1572 16.6028C23.0053 16.4509 22.92 16.2448 22.92 16.03V6H19.77C19.3833 5.99464 18.9994 6.0667 18.6409 6.21192C18.2825 6.35715 17.9567 6.57261 17.6827 6.84562C17.4088 7.11864 17.1922 7.44369 17.0458 7.80165C16.8993 8.15962 16.826 8.54326 16.83 8.93V17.57C16.8287 17.9512 16.9028 18.3289 17.048 18.6813C17.1933 19.0338 17.4069 19.354 17.6764 19.6236C17.946 19.8931 18.2662 20.1067 18.6186 20.2519C18.9711 20.3972 19.3488 20.4713 19.73 20.47H31.31V0H25.31L25.34 16.84Z" fill="#35B454"/>
<path d="M42.21 16.84H40.59C40.4849 16.8349 40.3818 16.8091 40.2867 16.7641C40.1916 16.719 40.1063 16.6557 40.0357 16.5777C39.9651 16.4996 39.9106 16.4085 39.8753 16.3093C39.84 16.2102 39.8246 16.1051 39.83 16V6H33.73V17.57C33.73 17.9517 33.8053 18.3296 33.9517 18.6821C34.098 19.0346 34.3125 19.3547 34.5829 19.6242C34.8533 19.8936 35.1741 20.107 35.5271 20.2521C35.8801 20.3973 36.2583 20.4713 36.64 20.47H42.21V22.25H33.98V26.44H45.35C45.732 26.4426 46.1108 26.3695 46.4644 26.2248C46.818 26.0802 47.1394 25.8668 47.41 25.5971C47.6806 25.3274 47.8951 25.0068 48.041 24.6537C48.1869 24.3006 48.2613 23.9221 48.26 23.54V6H42.26L42.21 16.84Z" fill="#35B454"/>
<path d="M62.2201 6.00002H50.6001V17.57C50.5988 17.9521 50.6732 18.3306 50.8191 18.6837C50.965 19.0368 51.1795 19.3575 51.4501 19.6271C51.7207 19.8968 52.0421 20.1102 52.3957 20.2549C52.7493 20.3995 53.1281 20.4727 53.5101 20.47H64.8801V16.84H57.4601C57.2453 16.84 57.0393 16.7547 56.8874 16.6028C56.7355 16.4509 56.6501 16.2448 56.6501 16.03V9.66002H58.2701C58.4823 9.66002 58.6858 9.7443 58.8358 9.89433C58.9858 10.0444 59.0701 10.2478 59.0701 10.46V15.06H62.2201C62.6022 15.0627 62.9809 14.9895 63.3345 14.8449C63.6881 14.7002 64.0095 14.4868 64.2802 14.2171C64.5508 13.9475 64.7652 13.6268 64.9111 13.2737C65.057 12.9206 65.1314 12.5421 65.1301 12.16V8.93002C65.1341 8.54583 65.0617 8.16467 64.9171 7.8087C64.7725 7.45273 64.5586 7.12903 64.2879 6.85642C64.0171 6.58382 63.6949 6.36772 63.34 6.22071C62.985 6.07369 62.6043 5.99867 62.2201 6.00002Z" fill="#35B454"/>
<path d="M79.09 6H67.55V20.47H73.55V9.66H75.16C75.2659 9.65868 75.371 9.67839 75.4693 9.718C75.5675 9.75761 75.6569 9.81633 75.7322 9.89075C75.8076 9.96517 75.8674 10.0538 75.9082 10.1515C75.949 10.2492 75.9701 10.3541 75.97 10.46V20.46H81.97V8.93C81.9528 8.16688 81.6454 7.43901 81.1103 6.89464C80.5752 6.35027 79.8528 6.03034 79.09 6Z" fill="#35B454"/>
</svg>
