<svg width="57" height="52" viewBox="0 0 57 52" fill="none" xmlns="http://www.w3.org/2000/svg">
<path d="M41.2917 4.28C40.9235 3.04933 40.17 1.96933 39.1421 1.19887C38.1143 0.428413 36.8663 0.00818247 35.5817 0H33.8517C32.4624 0.0103208 31.1197 0.502468 30.0529 1.39244C28.986 2.28242 28.261 3.51507 28.0017 4.88L25.0017 21.08L25.7417 18.56C26.1109 17.3261 26.8674 16.2437 27.8993 15.4729C28.9312 14.7022 30.1837 14.2839 31.4717 14.28H41.5617L45.7917 15.93L49.8717 14.28H48.6817C47.3984 14.2725 46.1514 13.8537 45.1237 13.0851C44.0959 12.3166 43.3417 11.2388 42.9717 10.01L41.2917 4.28Z" fill="url(#paint0_radial_118_489)"/>
<path d="M15.8415 47.13C16.1994 48.3675 16.9498 49.4552 17.9798 50.229C19.0097 51.0028 20.2633 51.4208 21.5515 51.42H25.2415C26.7971 51.421 28.2922 50.8177 29.4116 49.7375C30.531 48.6573 31.1871 47.1846 31.2415 45.63L31.6415 30L30.8015 32.87C30.4333 34.1007 29.6798 35.1807 28.652 35.9511C27.6241 36.7216 26.3761 37.1418 25.0915 37.15H14.8715L11.2415 35.15L7.31152 37.15H8.48152C9.76906 37.1567 11.0203 37.5774 12.0503 38.3499C13.0804 39.1224 13.8346 40.2058 14.2015 41.44L15.8415 47.13Z" fill="url(#paint1_radial_118_489)"/>
<path d="M35.3815 0.0300674H14.7215C8.8315 0.0300674 5.30149 7.82007 2.95149 15.6001C0.161494 24.8201 -3.4985 37.1401 7.0715 37.1401H15.9615C17.2533 37.1342 18.5087 36.7116 19.5411 35.9351C20.5735 35.1586 21.3276 34.0696 21.6915 32.8301C23.7782 25.4967 25.9048 18.1634 28.0715 10.8301C29.1615 7.18007 30.0715 4.04007 31.4415 2.09007C31.874 1.44499 32.4611 0.918504 33.1493 0.558666C33.8376 0.198828 34.605 0.0170988 35.3815 0.0300674Z" fill="url(#paint2_linear_118_489)"/>
<path d="M35.3815 0.0300674H14.7215C8.8315 0.0300674 5.30149 7.82007 2.95149 15.6001C0.161494 24.8201 -3.4985 37.1401 7.0715 37.1401H15.9615C17.2533 37.1342 18.5087 36.7116 19.5411 35.9351C20.5735 35.1586 21.3276 34.0696 21.6915 32.8301C23.7782 25.4967 25.9048 18.1634 28.0715 10.8301C29.1615 7.18007 30.0715 4.04007 31.4415 2.09007C31.874 1.44499 32.4611 0.918504 33.1493 0.558666C33.8376 0.198828 34.605 0.0170988 35.3815 0.0300674Z" fill="url(#paint3_linear_118_489)"/>
<path d="M21.1917 51.42H41.8016C47.6816 51.42 51.2217 43.64 53.5717 35.86C56.3817 26.64 60.0117 14.28 49.4516 14.28H40.5516C39.2616 14.288 38.0084 14.7116 36.978 15.488C35.9477 16.2643 35.195 17.3521 34.8316 18.59C32.7316 25.9234 30.6017 33.2567 28.4417 40.59C27.3617 44.24 26.4416 47.38 25.0816 49.33C24.656 49.9723 24.078 50.4992 23.3993 50.8639C22.7206 51.2285 21.9621 51.4196 21.1917 51.42Z" fill="url(#paint4_radial_118_489)"/>
<path d="M21.1917 51.42H41.8016C47.6816 51.42 51.2217 43.64 53.5717 35.86C56.3817 26.64 60.0117 14.28 49.4516 14.28H40.5516C39.2616 14.288 38.0084 14.7116 36.978 15.488C35.9477 16.2643 35.195 17.3521 34.8316 18.59C32.7316 25.9234 30.6017 33.2567 28.4417 40.59C27.3617 44.24 26.4416 47.38 25.0816 49.33C24.656 49.9723 24.078 50.4992 23.3993 50.8639C22.7206 51.2285 21.9621 51.4196 21.1917 51.42Z" fill="url(#paint5_linear_118_489)"/>
<defs>
<radialGradient id="paint0_radial_118_489" cx="0" cy="0" r="1" gradientTransform="matrix(-14.0288 -17.1392 -16.1152 13.1968 43.2635 34.2609)" gradientUnits="userSpaceOnUse">
<stop offset="0.1" stop-color="#00AEFF"/>
<stop offset="0.77" stop-color="#2253CE"/>
<stop offset="1" stop-color="#0736C4"/>
</radialGradient>
<radialGradient id="paint1_radial_118_489" cx="0" cy="0" r="1" gradientTransform="matrix(12.6464 16.0896 15.616 -12.2624 23.0147 72.4247)" gradientUnits="userSpaceOnUse">
<stop stop-color="#FFB657"/>
<stop offset="0.63" stop-color="#FF5F3D"/>
<stop offset="0.92" stop-color="#C02B3C"/>
</radialGradient>
<linearGradient id="paint2_linear_118_489" x1="16.7215" y1="4.25007" x2="19.6615" y2="38.2601" gradientUnits="userSpaceOnUse">
<stop offset="0.16" stop-color="#0D91E1"/>
<stop offset="0.49" stop-color="#52B471"/>
<stop offset="0.65" stop-color="#98BD42"/>
<stop offset="0.94" stop-color="#FFC800"/>
</linearGradient>
<linearGradient id="paint3_linear_118_489" x1="17.0115" y1="-0.00993257" x2="18.6215" y2="37.1001" gradientUnits="userSpaceOnUse">
<stop stop-color="#3DCBFF"/>
<stop offset="0.25" stop-color="#0588F7" stop-opacity="0"/>
</linearGradient>
<radialGradient id="paint4_radial_118_489" cx="0" cy="0" r="1" gradientTransform="matrix(-16.2176 46.3872 55.5648 19.4304 45.2857 -16.191)" gradientUnits="userSpaceOnUse">
<stop offset="0.07" stop-color="#8C48FF"/>
<stop offset="0.5" stop-color="#F2598A"/>
<stop offset="0.9" stop-color="#FFB152"/>
</radialGradient>
<linearGradient id="paint5_linear_118_489" x1="38.9117" y1="12.01" x2="38.8917" y2="22.12" gradientUnits="userSpaceOnUse">
<stop offset="0.06" stop-color="#F8ADFA"/>
<stop offset="0.71" stop-color="#A86EDD" stop-opacity="0"/>
</linearGradient>
</defs>
</svg>
