<svg width="68" height="41" viewBox="0 0 68 41" fill="none" xmlns="http://www.w3.org/2000/svg">
<path d="M19.0494 14.7245C19.0445 15.3974 19.1184 16.0687 19.2694 16.7245C19.4653 17.2927 19.713 17.8417 20.0094 18.3645C20.1133 18.5187 20.1721 18.6987 20.1794 18.8845C20.1692 19.027 20.1225 19.1644 20.0436 19.2836C19.9648 19.4027 19.8565 19.4995 19.7294 19.5645L18.3094 20.5645C18.1386 20.6821 17.944 20.7607 17.7394 20.7945C17.4768 20.7751 17.2324 20.6529 17.0594 20.4545C16.7441 20.1332 16.4748 19.7697 16.2594 19.3745C16.0236 18.9457 15.81 18.5052 15.6194 18.0545C14.8182 19.0433 13.804 19.8384 12.6525 20.3804C11.501 20.9224 10.242 21.1972 8.96936 21.1845C8.14868 21.2233 7.32853 21.0973 6.55736 20.8139C5.78618 20.5305 5.07961 20.0955 4.47936 19.5345C3.92422 18.965 3.49147 18.288 3.20771 17.5451C2.92396 16.8022 2.7952 16.009 2.82936 15.2145C2.79532 14.3379 2.95719 13.4648 3.30316 12.6587C3.64914 11.8525 4.17052 11.1337 4.82936 10.5545C6.38222 9.30113 8.34746 8.6734 10.3394 8.79449C11.1388 8.8002 11.9371 8.85698 12.7294 8.96449C13.6088 9.08216 14.4803 9.25246 15.3394 9.47449V7.78449C15.3394 6.08449 14.9994 4.89449 14.2594 4.20449C13.1958 3.42545 11.8808 3.06909 10.5694 3.20449C9.74515 3.22052 8.92453 3.31766 8.11936 3.49449C7.26936 3.71449 6.47936 3.94449 5.67936 4.22449C5.42441 4.34263 5.16019 4.43962 4.88936 4.51449C4.7772 4.55521 4.65867 4.57553 4.53936 4.57449C4.19936 4.57449 4.08936 4.34449 4.08936 3.88449V2.78449C4.0737 2.51064 4.13245 2.23766 4.25936 1.99449C4.42153 1.78457 4.64002 1.62504 4.88936 1.53449C5.80009 1.10675 6.75155 0.77173 7.72936 0.534492C8.88093 0.225572 10.0671 0.0642799 11.2594 0.0544922C13.9294 0.0544922 15.9194 0.674492 17.1694 1.86449C18.4194 3.05449 19.0494 4.93449 19.0494 7.43449V14.7145V14.7245ZM9.89936 18.1845C10.6925 18.1874 11.4804 18.0556 12.2294 17.7945C13.0551 17.5009 13.7966 17.01 14.3894 16.3645C14.7348 15.951 14.9841 15.466 15.1194 14.9445C15.2626 14.3244 15.3397 13.6909 15.3494 13.0545V12.0545C14.6898 11.888 14.0223 11.7545 13.3494 11.6545C12.6507 11.5548 11.9448 11.5146 11.2394 11.5345C10.0503 11.4333 8.86378 11.7556 7.88936 12.4445C7.51437 12.764 7.2182 13.1657 7.02393 13.6184C6.82967 14.0711 6.74254 14.5626 6.76936 15.0545C6.73256 15.4904 6.78937 15.9292 6.93597 16.3414C7.08256 16.7536 7.31556 17.1297 7.61936 17.4445C8.25426 17.9782 9.07206 18.2436 9.89936 18.1845ZM27.9694 20.5745C27.6638 20.6109 27.3559 20.5286 27.1094 20.3445C26.8768 20.1132 26.7199 19.8168 26.6594 19.4945L21.3694 2.10449C21.2749 1.80665 21.2014 1.50258 21.1494 1.19449C21.1396 1.11731 21.1476 1.03892 21.1728 0.965314C21.198 0.891709 21.2397 0.824842 21.2947 0.769832C21.3497 0.714821 21.4166 0.673124 21.4902 0.647933C21.5638 0.622742 21.6422 0.614724 21.7194 0.624492H23.9294C24.3894 0.624492 24.6694 0.684491 24.7794 0.854491C25.0112 1.0877 25.1709 1.38282 25.2394 1.70449L29.0494 16.5945L32.6194 1.70449C32.7294 1.25449 32.8494 0.974491 33.0694 0.854491C33.3502 0.706724 33.6621 0.627887 33.9794 0.624492H35.7994C36.1211 0.580039 36.4474 0.662526 36.7094 0.854491C36.9377 1.09029 37.0969 1.38434 37.1694 1.70449L40.7494 16.8245L44.6194 1.70449C44.6698 1.37872 44.8283 1.07935 45.0694 0.854491C45.325 0.698311 45.6199 0.618505 45.9194 0.624492H48.0294C48.1062 0.614332 48.1843 0.622169 48.2576 0.64738C48.3309 0.672592 48.3973 0.714488 48.4516 0.769765C48.5059 0.825042 48.5466 0.892185 48.5705 0.965894C48.5944 1.0396 48.6009 1.11786 48.5894 1.19449C48.6144 1.30645 48.6144 1.42254 48.5894 1.53449C48.5698 1.73364 48.5121 1.92715 48.4194 2.10449L42.9094 19.4945C42.862 19.8213 42.703 20.1216 42.4594 20.3445C42.2026 20.5064 41.9027 20.5866 41.5994 20.5745H39.6694C39.3477 20.6179 39.0217 20.5355 38.7594 20.3445C38.5279 20.0888 38.3721 19.7737 38.3094 19.4345L34.8394 4.89449L31.3794 19.3845C31.333 19.731 31.1709 20.0517 30.9194 20.2945C30.652 20.474 30.3292 20.5521 30.0094 20.5145H28.0094L27.9694 20.5745ZM56.9694 21.1945C55.8011 21.2065 54.6358 21.0756 53.4994 20.8045C52.596 20.6071 51.7196 20.3016 50.8894 19.8945C50.5494 19.6645 50.2594 19.4345 50.2094 19.2645C50.1165 19.0716 50.0752 18.8581 50.0894 18.6445V17.5045C50.0894 17.0545 50.2594 16.8245 50.5994 16.8245C50.7355 16.8142 50.8722 16.8347 50.9994 16.8845C51.1094 16.9345 51.3394 16.9945 51.5694 17.1045C52.367 17.472 53.2065 17.7407 54.0694 17.9045C54.9486 18.0817 55.8425 18.1755 56.7394 18.1845C57.8876 18.2594 59.0331 18.0025 60.0394 17.4445C60.4054 17.2182 60.7071 16.9016 60.9155 16.5251C61.1239 16.1486 61.2319 15.7248 61.2294 15.2945C61.229 14.7007 61.004 14.1291 60.5994 13.6945C59.939 13.1363 59.1641 12.73 58.3294 12.5045L55.0894 11.5045C53.6888 11.1333 52.438 10.3367 51.5094 9.22449C50.7866 8.30202 50.3893 7.16635 50.3794 5.99449C50.3642 5.12131 50.5779 4.25938 50.9994 3.49449C51.3958 2.7516 51.9485 2.1034 52.6194 1.59449C53.3195 1.06313 54.1084 0.660218 54.9494 0.404493C55.8698 0.125584 56.8277 -0.00934227 57.7894 0.004493C58.3018 -0.0136575 58.8148 0.0232189 59.3194 0.114492C59.8394 0.174492 60.3194 0.284493 60.7994 0.344493L62.1094 0.684491C62.4558 0.782507 62.7909 0.916575 63.1094 1.08449C63.3955 1.19388 63.6379 1.39411 63.7994 1.65449C63.9387 1.87654 64.0147 2.1324 64.0194 2.39449V3.47449C64.0194 3.92449 63.8494 4.20449 63.5094 4.20449C63.213 4.15651 62.9262 4.062 62.6594 3.92449C61.2866 3.33208 59.8044 3.03564 58.3094 3.05449C57.2737 3.01283 56.2436 3.22571 55.3094 3.67449C54.968 3.88198 54.688 4.1766 54.4982 4.52809C54.3084 4.87958 54.2156 5.27526 54.2294 5.67449C54.2207 5.97296 54.277 6.26976 54.3944 6.5443C54.5119 6.81885 54.6875 7.06458 54.9094 7.26449C55.6436 7.85539 56.4961 8.28167 57.4094 8.51449L60.5894 9.51449C61.9449 9.85045 63.1595 10.6065 64.0594 11.6745C64.7254 12.5769 65.0768 13.673 65.0594 14.7945C65.0642 15.6959 64.8696 16.5872 64.4894 17.4045C64.0797 18.1726 63.5224 18.8523 62.8494 19.4045C62.1097 19.9869 61.259 20.4122 60.3494 20.6545C59.2472 20.9942 58.1025 21.176 56.9494 21.1945H56.9694Z" fill="#252F3E"/>
<path fill-rule="evenodd" clip-rule="evenodd" d="M61.2094 32.1645C53.8194 37.6245 43.0294 40.5245 33.7594 40.5245C21.3956 40.5981 9.45331 36.0345 0.289355 27.7345C-0.390645 27.1045 0.239355 26.2545 1.02935 26.7345C11.2319 32.5943 22.7938 35.6735 34.5594 35.6645C43.344 35.6225 52.0337 33.8452 60.1294 30.4345C61.3194 29.8945 62.3993 31.2545 61.2094 32.1645Z" fill="#FF9900"/>
<path fill-rule="evenodd" clip-rule="evenodd" d="M64.2794 28.6446C63.2794 27.4546 58.0294 28.0746 55.5794 28.3546C54.8394 28.4746 54.7294 27.7946 55.4094 27.3546C59.6694 24.3546 66.6094 25.2546 67.4094 26.2246C68.2094 27.1946 67.1894 34.2246 63.2094 37.5246C62.5794 38.0346 62.0094 37.7546 62.2994 37.0746C63.1994 34.8346 65.2394 29.8346 64.2794 28.6446Z" fill="#FF9900"/>
</svg>
