<svg width="41" height="54" viewBox="0 0 41 54" fill="none" xmlns="http://www.w3.org/2000/svg">
<path d="M38.1 0H23.94C22.7194 0 21.73 0.989452 21.73 2.21V51.25C21.73 52.4706 22.7194 53.46 23.94 53.46H38.1C39.3205 53.46 40.31 52.4706 40.31 51.25V2.21C40.31 0.989452 39.3205 0 38.1 0Z" fill="url(#paint0_linear_118_497)"/>
<path fill-rule="evenodd" clip-rule="evenodd" d="M29.36 51.2501V53.4601H12.95C12.3639 53.4601 11.8017 53.2272 11.3873 52.8128C10.9728 52.3983 10.74 51.8362 10.74 51.2501V15.5201C10.7426 14.9357 10.9766 14.3761 11.3908 13.9638C11.805 13.5515 12.3656 13.3201 12.95 13.3201H27.16C27.7435 13.3201 28.303 13.5519 28.7156 13.9644C29.1282 14.377 29.36 14.9366 29.36 15.5201V51.2501Z" fill="url(#paint1_linear_118_497)"/>
<path fill-rule="evenodd" clip-rule="evenodd" d="M18.59 51.25V53.46H2.21C1.62387 53.46 1.06175 53.2271 0.647295 52.8127C0.23284 52.3982 0 51.8361 0 51.25V28.93C0.00264434 28.3456 0.236651 27.786 0.65082 27.3737C1.06499 26.9614 1.6256 26.73 2.21 26.73H16.38C16.9644 26.73 17.525 26.9614 17.9392 27.3737C18.3534 27.786 18.5874 28.3456 18.59 28.93V51.25Z" fill="url(#paint2_linear_118_497)"/>
<defs>
<linearGradient id="paint0_linear_118_497" x1="30.92" y1="-0.47" x2="30.92" y2="56.23" gradientUnits="userSpaceOnUse">
<stop stop-color="#EBBB14"/>
<stop offset="1" stop-color="#B25400"/>
</linearGradient>
<linearGradient id="paint1_linear_118_497" x1="20.18" y1="13.7401" x2="20.18" y2="51.5801" gradientUnits="userSpaceOnUse">
<stop stop-color="#F9E583"/>
<stop offset="1" stop-color="#DE9800"/>
</linearGradient>
<linearGradient id="paint2_linear_118_497" x1="9.25" y1="26.56" x2="9.25" y2="54.91" gradientUnits="userSpaceOnUse">
<stop stop-color="#F9E68B"/>
<stop offset="1" stop-color="#F3CD32"/>
</linearGradient>
</defs>
</svg>
