<svg width="81" height="19" viewBox="0 0 81 19" fill="none" xmlns="http://www.w3.org/2000/svg">
<path d="M55.0693 6.43004C55.4993 4.08004 58.1493 1.98004 60.4593 1.43004C61.4546 1.21716 62.4881 1.26538 63.4593 1.57004L55.0793 6.41004" fill="black"/>
<path d="M77.0893 1.40005L79.8893 5.02005H74.1893C73.7293 5.02005 73.5793 5.29005 73.4393 5.73005C73.3902 5.95097 73.4242 6.18225 73.5349 6.37965C73.6456 6.57705 73.8252 6.72672 74.0393 6.80005L78.8393 9.12005H70.4893C69.8936 8.6266 69.4537 7.971 69.223 7.23265C68.9922 6.49431 68.9805 5.7049 69.1893 4.96004C69.3794 4.18876 69.7615 3.47809 70.3 2.89412C70.8385 2.31016 71.5159 1.87188 72.2693 1.62005C72.7562 1.49287 73.2562 1.4224 73.7593 1.41005H77.0893" fill="black"/>
<path d="M54.4393 1.58005V6.80005L51.2693 8.65005L50.5093 8.39005V1.58005H54.4393Z" fill="black"/>
<path d="M40.4193 1.58005H44.0693L49.3993 8.72005L49.1993 9.11005H44.7193L44.0093 8.11005V9.11005H40.4093V1.58005" fill="black"/>
<path d="M54.4293 9.13005H51.6893L54.4293 7.53005V9.13005Z" fill="black"/>
<path d="M22.6393 9.78005C22.6393 11.47 22.2493 14.42 19.4593 14.37C16.6693 14.42 16.2793 11.47 16.2793 9.78005H12.3793C12.3216 11.6112 12.7752 13.4223 13.6893 15.01H9.12931C8.47931 15.01 7.78931 15.01 7.04931 14.91C4.39931 14.64 4.31931 9.79005 4.31931 9.77005H0.00930919C-0.0983246 12.2324 0.730605 14.6442 2.32931 16.52C3.91931 18.46 6.18931 18.88 8.61931 18.98H13.9293V15.29C14.3641 15.7961 14.8537 16.2522 15.3893 16.65C16.426 17.349 17.6271 17.7655 18.874 17.8584C20.1209 17.9514 21.3704 17.7175 22.4993 17.18C25.2193 15.83 26.3693 13.01 26.4993 10.18C26.9493 14.91 28.9193 17.9 35.6493 17.58C37.0907 16.8483 38.4866 16.0302 39.8293 15.13V9.78005H36.1893V14.29H35.1893C34.2333 14.3805 33.2689 14.2681 32.3593 13.96C30.5993 13.2 30.5593 11.36 30.3593 9.81005H22.5593" fill="black"/>
<path d="M44.0193 12.85L40.4193 14.93C40.4193 14.93 40.4193 9.80005 40.4193 9.78005H43.9993V12.84" fill="black"/>
<path d="M46.5693 12.11L49.5193 10.4L49.9893 10.62V17.56L46.5793 12.11" fill="black"/>
<path d="M50.7593 10.58L54.4293 12.78V17.55H50.7593V10.55" fill="black"/>
<path d="M62.6393 17.8C61.0458 18.0739 59.4068 17.7702 58.0173 16.9434C56.6278 16.1167 55.5789 14.8212 55.0593 13.29L62.6393 17.84" fill="black"/>
<path d="M44.0093 17.55H40.4293V15.68L44.0093 13.59V17.59" fill="black"/>
<path d="M39.8693 16V17.56H37.1893L39.8593 16.01" fill="black"/>
<path d="M46.2693 11.55L45.1893 9.79005H49.2893L46.2893 11.55" fill="black"/>
<path d="M8.28931 4.64148e-05C6.97292 -0.00419756 5.67187 0.282648 4.47931 0.840047C1.30931 2.49005 0.239309 5.84005 0.019309 9.13005H4.34931C4.42007 8.30175 4.55041 7.47962 4.73931 6.67005C5.01931 5.35005 6.21931 3.83005 7.42931 3.83005H13.9893C12.9569 5.41015 12.3983 7.25268 12.3793 9.14005H16.2993C16.2993 7.43005 16.8093 4.73005 19.4793 4.78005C22.1593 4.78005 22.6193 7.43005 22.6593 9.15005H30.4793C30.4856 8.23926 30.6341 7.33504 30.9193 6.47005C31.0592 6.00182 31.3375 5.5869 31.7177 5.27989C32.0979 4.97288 32.5621 4.78816 33.0493 4.75005H39.0493L36.6593 1.58005C33.5493 1.58005 30.0193 1.37005 28.0393 4.18005C27.0882 5.57955 26.57 7.22805 26.5493 8.92005C26.4691 7.92729 26.3018 6.94351 26.0493 5.98005C25.6298 4.77561 24.8893 3.70866 23.9076 2.89443C22.926 2.0802 21.7405 1.54964 20.4793 1.36005C19.2769 1.19624 18.0526 1.33857 16.9199 1.77383C15.7872 2.2091 14.7826 2.92323 13.9993 3.85005C12.9993 2.65005 11.9993 1.29005 10.9993 0.0100486H8.28931" fill="black"/>
<path d="M54.4293 11.87L51.4293 10.09V9.77005H58.5793C58.5793 11.46 58.9693 14.41 61.7493 14.36C64.5293 14.41 64.9193 11.48 64.9293 9.79005H68.9293C68.8808 11.0939 68.6312 12.3824 68.1893 13.61V13.7H75.5693C75.7919 13.6734 75.9991 13.5726 76.1576 13.414C76.3161 13.2554 76.4167 13.0481 76.4432 12.8255C76.4698 12.6028 76.4207 12.3777 76.3039 12.1863C76.1871 11.9949 76.0094 11.8483 75.7993 11.77C74.4093 11.17 72.7993 10.37 71.3493 9.77005H79.4593C79.9406 10.3003 80.3043 10.9264 80.5266 11.6071C80.749 12.2879 80.8248 13.0079 80.7493 13.72C79.9093 17.72 76.5293 17.54 76.5293 17.54H68.1193V13.85L67.9993 14.08C67.5654 14.9194 66.966 15.6622 66.2373 16.2637C65.5086 16.8653 64.6657 17.313 63.7593 17.58L54.7593 12.17C54.6667 11.7474 54.5966 11.3201 54.5493 10.89L54.4193 11.89" fill="black"/>
<path d="M64.8993 9.12005C64.8993 7.41005 64.3993 4.71005 61.7193 4.75005C59.0493 4.75005 58.5793 7.41005 58.5393 9.13005H54.8393C54.7964 8.48333 54.8435 7.8338 54.9793 7.20005L64.3193 1.87005C68.7593 3.64005 68.8893 8.38005 68.8993 9.12005H64.8993Z" fill="black"/>
</svg>
