<svg width="64" height="27" viewBox="0 0 64 27" fill="none" xmlns="http://www.w3.org/2000/svg">
<path d="M34.01 2C34.01 1.60444 33.8927 1.21776 33.6729 0.88886C33.4532 0.559962 33.1408 0.303617 32.7754 0.152242C32.4099 0.000866562 32.0078 -0.0387401 31.6198 0.0384303C31.2319 0.115601 30.8755 0.306081 30.5958 0.585786C30.3161 0.865491 30.1256 1.22186 30.0484 1.60982C29.9713 1.99778 30.0109 2.39991 30.1623 2.76537C30.3136 3.13082 30.57 3.44318 30.8989 3.66294C31.2278 3.8827 31.6144 4 32.01 4C32.5341 3.9802 33.0314 3.76313 33.4023 3.39226C33.7731 3.0214 33.9902 2.52411 34.01 2Z" fill="#4BCD3E"/>
<path d="M27.53 2C27.53 1.60444 27.4127 1.21776 27.193 0.88886C26.9732 0.559962 26.6608 0.303617 26.2954 0.152242C25.9299 0.000866562 25.5278 -0.0387401 25.1398 0.0384303C24.7519 0.115601 24.3955 0.306081 24.1158 0.585786C23.8361 0.865491 23.6456 1.22186 23.5685 1.60982C23.4913 1.99778 23.5309 2.39991 23.6823 2.76537C23.8336 3.13082 24.09 3.44318 24.4189 3.66294C24.7478 3.8827 25.1345 4 25.53 4C26.0541 3.9802 26.5514 3.76313 26.9223 3.39226C27.2932 3.0214 27.5102 2.52411 27.53 2Z" fill="#4BCD3E" fill-opacity="0.8"/>
<path d="M21.05 2C21.05 1.60444 20.9328 1.21776 20.713 0.88886C20.4932 0.559962 20.1809 0.303617 19.8154 0.152242C19.45 0.000866562 19.0478 -0.0387401 18.6599 0.0384303C18.2719 0.115601 17.9155 0.306081 17.6358 0.585786C17.3561 0.865491 17.1656 1.22186 17.0885 1.60982C17.0113 1.99778 17.0509 2.39991 17.2023 2.76537C17.3537 3.13082 17.61 3.44318 17.9389 3.66294C18.2678 3.8827 18.6545 4 19.0501 4C19.5742 3.9802 20.0714 3.76313 20.4423 3.39226C20.8132 3.0214 21.0303 2.52411 21.05 2Z" fill="#4BCD3E" fill-opacity="0.6"/>
<path d="M14.6101 2C14.6101 1.60444 14.4928 1.21776 14.273 0.88886C14.0533 0.559962 13.7409 0.303617 13.3755 0.152242C13.01 0.000866562 12.6079 -0.0387401 12.2199 0.0384303C11.832 0.115601 11.4756 0.306081 11.1959 0.585786C10.9162 0.865491 10.7257 1.22186 10.6485 1.60982C10.5714 1.99778 10.611 2.39991 10.7623 2.76537C10.9137 3.13082 11.1701 3.44318 11.499 3.66294C11.8279 3.8827 12.2145 4 12.6101 4C13.1342 3.9802 13.6315 3.76313 14.0024 3.39226C14.3732 3.0214 14.5903 2.52411 14.6101 2Z" fill="#4BCD3E" fill-opacity="0.4"/>
<path d="M8.12988 2C8.12988 1.60444 8.01259 1.21776 7.79282 0.88886C7.57306 0.559962 7.2607 0.303617 6.89525 0.152242C6.5298 0.000866562 6.12767 -0.0387401 5.7397 0.0384303C5.35174 0.115601 4.99538 0.306081 4.71567 0.585786C4.43597 0.865491 4.24548 1.22186 4.16831 1.60982C4.09114 1.99778 4.13075 2.39991 4.28212 2.76537C4.4335 3.13082 4.68984 3.44318 5.01874 3.66294C5.34764 3.8827 5.73432 4 6.12988 4C6.654 3.9802 7.15128 3.76313 7.52215 3.39226C7.89301 3.0214 8.11009 2.52411 8.12988 2Z" fill="#4BCD3E" fill-opacity="0.2"/>
<path d="M62.36 9.57992C62.3613 9.39701 62.3262 9.21566 62.2569 9.04642C62.1875 8.87717 62.0851 8.72341 61.9558 8.59407C61.8265 8.46473 61.6727 8.3624 61.5035 8.29301C61.3342 8.22363 61.1529 8.18859 60.97 8.18992H44.9C43.5208 8.18992 42.1982 8.73777 41.223 9.71296C40.2478 10.6882 39.7 12.0108 39.7 13.3899C39.7 14.769 40.2478 16.0917 41.223 17.0669C42.1982 18.0421 43.5208 18.5899 44.9 18.5899H57.82C58.4284 18.6293 58.9991 18.8987 59.4161 19.3435C59.8331 19.7883 60.0651 20.3752 60.0651 20.9849C60.0651 21.5946 59.8331 22.1815 59.4161 22.6263C58.9991 23.0711 58.4284 23.3406 57.82 23.3799H41.72C41.3704 23.4095 41.0446 23.5693 40.8073 23.8277C40.5699 24.086 40.4382 24.4241 40.4382 24.7749C40.4382 25.1258 40.5699 25.4638 40.8073 25.7221C41.0446 25.9805 41.3704 26.1403 41.72 26.1699H57.82C58.52 26.2007 59.219 26.0893 59.8749 25.8426C60.5308 25.5959 61.1299 25.219 61.6362 24.7345C62.1424 24.25 62.5453 23.668 62.8206 23.0235C63.0958 22.3791 63.2377 21.6857 63.2377 20.9849C63.2377 20.2842 63.0958 19.5907 62.8206 18.9463C62.5453 18.3019 62.1424 17.7199 61.6362 17.2354C61.1299 16.7509 60.5308 16.3739 59.8749 16.1272C59.219 15.8805 58.52 15.7692 57.82 15.7999H44.9C44.2915 15.7606 43.7208 15.4911 43.3038 15.0463C42.8868 14.6015 42.6548 14.0146 42.6548 13.4049C42.6548 12.7952 42.8868 12.2083 43.3038 11.7635C43.7208 11.3187 44.2915 11.0493 44.9 11.0099H61C61.3669 10.9969 61.7143 10.8413 61.9683 10.5761C62.2223 10.3109 62.3628 9.9571 62.36 9.58992V9.57992Z" fill="#4BCD3E"/>
<path d="M22.97 8.18996H9.13C3.69 8.18996 0 11.75 0 17.19V24.8C0.0582924 25.1557 0.241149 25.4792 0.515917 25.7126C0.790685 25.9461 1.13947 26.0742 1.5 26.0742C1.86053 26.0742 2.20932 25.9461 2.48408 25.7126C2.75885 25.4792 2.94171 25.1557 3 24.8V17.2C3.04 13.44 5.36 10.94 9.13 10.94H22.97C23.3196 10.9103 23.6453 10.7505 23.8827 10.4922C24.1201 10.2339 24.2518 9.8958 24.2518 9.54496C24.2518 9.19413 24.1201 8.85607 23.8827 8.59773C23.6453 8.33939 23.3196 8.17959 22.97 8.14996V8.18996Z" fill="#4BCD3E"/>
<path d="M4.59989 17.1999C4.59856 17.3828 4.63361 17.5642 4.70299 17.7334C4.77237 17.9027 4.87471 18.0564 5.00405 18.1858C5.13339 18.3151 5.28715 18.4174 5.45639 18.4868C5.62563 18.5562 5.80698 18.5913 5.98989 18.5899H19.9899C20.183 18.6063 20.3774 18.5824 20.5608 18.5197C20.7442 18.457 20.9126 18.357 21.0553 18.2258C21.1981 18.0947 21.312 17.9353 21.3899 17.7579C21.4679 17.5804 21.5081 17.3887 21.5081 17.1949C21.5081 17.0011 21.4679 16.8094 21.3899 16.6319C21.312 16.4545 21.1981 16.2952 21.0553 16.164C20.9126 16.0329 20.7442 15.9328 20.5608 15.8701C20.3774 15.8075 20.183 15.7836 19.9899 15.7999H5.98989C5.62032 15.8026 5.26679 15.9512 5.0064 16.2135C4.74601 16.4758 4.59988 16.8303 4.59989 17.1999Z" fill="#4BCD3E"/>
<path d="M30.45 9.57994V24.8099C30.5082 25.1657 30.6911 25.4892 30.9659 25.7226C31.2406 25.956 31.5894 26.0842 31.95 26.0842C32.3105 26.0842 32.6593 25.956 32.934 25.7226C33.2088 25.4892 33.3917 25.1657 33.45 24.8099V9.57994C33.45 9.38033 33.4106 9.18268 33.3342 8.99826C33.2579 8.81385 33.1459 8.64628 33.0048 8.50513C32.8636 8.36399 32.696 8.25203 32.5116 8.17564C32.3272 8.09925 32.1296 8.05994 31.93 8.05994C31.5371 8.07999 31.1662 8.24776 30.8918 8.52962C30.6173 8.81149 30.4595 9.18664 30.45 9.57994Z" fill="#4BCD3E"/>
</svg>
