<svg width="61" height="31" viewBox="0 0 61 31" fill="none" xmlns="http://www.w3.org/2000/svg">
<path d="M60.2599 26.1708H56.4299V30.0008H60.2599V26.1708Z" fill="#FF6600"/>
<path d="M48.63 9.04077L50.91 26.2008L53.19 9.04077H56.78L53.43 30.0008H48.35L45.03 9.04077H48.63Z" fill="#FF6600"/>
<path d="M2 9.04075H0V11.8307H2V30.0407H5.48V11.8007H7.94V9.04075H5.48V4.79075C5.45332 4.27693 5.61711 3.77132 5.94 3.37074C6.12571 3.20173 6.34372 3.07206 6.58089 2.98957C6.81807 2.90707 7.06949 2.87346 7.32 2.89075H7.94V0.0207464H6.66C5.33796 -0.0926366 4.01802 0.261234 2.93 1.02075C2.56879 1.46874 2.3005 1.98424 2.14082 2.53712C1.98113 3.08999 1.93326 3.66915 2 4.24074V9.04075Z" fill="#FF6600"/>
<path d="M12.5 9.04077H9.01001V30.0108H12.5V9.04077Z" fill="#FF6600"/>
<path d="M28.5898 20.7108H35.8498V14.2508C35.8498 10.3808 33.9798 8.79077 30.4598 8.79077C26.9398 8.79077 25.0698 10.3808 25.0698 14.2908V24.9608C25.0698 28.5108 27.2498 30.3408 30.4598 30.3408C33.6698 30.3408 35.8498 28.8208 35.8498 24.9608V23.2008H32.4598V25.2008C32.4598 26.6208 31.9398 27.6208 30.4598 27.6208C28.9798 27.6208 28.5298 26.6208 28.5298 25.2008C28.5898 25.2008 28.5898 20.7108 28.5898 20.7108ZM28.5898 13.5308C28.5898 12.3508 28.8998 11.1108 30.5298 11.1108C32.1598 11.1108 32.5298 12.3208 32.5298 13.5308V17.8808H28.5898V13.5308Z" fill="#FF6600"/>
<path d="M20.3399 18.0908C17.7099 15.7708 17.5099 15.4608 17.5099 13.7308C17.5099 12.2808 17.6399 11.3908 18.9599 11.3908C20.2799 11.3908 20.4399 12.2508 20.4399 13.7308V15.6708H23.7899V12.5208C23.7899 10.0408 21.8899 8.79077 18.8899 8.79077C15.8899 8.79077 14.0199 9.79077 13.9799 13.7308V14.1508C13.9799 15.3908 13.9799 17.3608 17.0899 20.0208L17.9899 20.7808C20.2699 22.6808 20.5099 22.9208 20.5099 25.2008C20.5099 26.6208 20.4399 27.6908 18.9599 27.6908C17.4799 27.6908 17.3999 26.6208 17.3999 25.9608V23.2708H13.8799V26.0308C13.8799 29.4508 16.0899 30.2808 18.9599 30.2808C21.8299 30.2808 24.0299 29.4208 24.0299 25.0308V24.6808C24.0299 21.6108 23.4099 20.7808 20.3399 18.0908Z" fill="#FF6600"/>
<path d="M40.5399 11.1807V9.04074H37.3699V29.9607H40.7899V15.3907C40.7501 14.9528 40.8209 14.5119 40.9956 14.1083C41.1703 13.7048 41.4434 13.3515 41.7899 13.0807C42.4854 12.6618 43.2887 12.4566 44.0999 12.4907V8.76074C42.2699 8.76074 41.5099 9.14074 40.5799 11.0707V11.1807H40.5399Z" fill="#FF6600"/>
</svg>
