<svg width="53" height="53" viewBox="0 0 53 53" fill="none" xmlns="http://www.w3.org/2000/svg">
<path d="M26.4 52.8C40.9803 52.8 52.8 40.9803 52.8 26.4C52.8 11.8197 40.9803 0 26.4 0C11.8197 0 0 11.8197 0 26.4C0 40.9803 11.8197 52.8 26.4 52.8Z" fill="#55F5A3"/>
<path d="M28.7699 23.8001C29.2361 24.2675 29.5533 24.8627 29.6814 25.5103C29.8096 26.158 29.7429 26.8291 29.4898 27.4388C29.2367 28.0486 28.8086 28.5697 28.2596 28.9363C27.7105 29.3029 27.0651 29.4985 26.4049 29.4985C25.7447 29.4985 25.0994 29.3029 24.5503 28.9363C24.0012 28.5697 23.5731 28.0486 23.3201 27.4388C23.067 26.8291 23.0003 26.158 23.1284 25.5103C23.2566 24.8627 23.5738 24.2675 24.0399 23.8001C24.6692 23.1766 25.5191 22.8268 26.4049 22.8268C27.2908 22.8268 28.1407 23.1766 28.7699 23.8001Z" fill="black"/>
<path d="M39.24 29.53C39.6953 29.5414 40.148 29.4585 40.5696 29.2864C40.9913 29.1143 41.3727 28.8568 41.69 28.53C42.0006 28.2195 42.2469 27.8508 42.415 27.445C42.5831 27.0392 42.6696 26.6043 42.6696 26.165C42.6696 25.7258 42.5831 25.2909 42.415 24.8851C42.2469 24.4793 42.0006 24.1106 41.69 23.8C41.3794 23.4895 41.0107 23.2431 40.6049 23.075C40.1991 22.9069 39.7642 22.8204 39.325 22.8204C38.8858 22.8204 38.4508 22.9069 38.0451 23.075C37.6393 23.2431 37.2706 23.4895 36.96 23.8C36.6272 24.1211 36.3661 24.509 36.1937 24.9381C36.0214 25.3672 35.9417 25.828 35.96 26.29C35.9992 26.6983 35.9509 27.1102 35.8181 27.4982C35.6853 27.8863 35.4711 28.2415 35.19 28.54C34.551 29.0734 33.7303 29.3386 32.9 29.28C32.0898 29.254 31.3 29.5363 30.69 30.07L30.48 30.26C30.31 30.4359 30.156 30.6267 30.02 30.83C29.6512 31.3929 29.4692 32.0578 29.5 32.73C29.5417 33.1353 29.4964 33.5448 29.3671 33.9311C29.2377 34.3174 29.0273 34.6716 28.75 34.97C28.1125 35.507 27.2916 35.7759 26.46 35.72C26.0072 35.7052 25.5565 35.7867 25.1376 35.9591C24.7187 36.1315 24.3412 36.3909 24.03 36.72C23.6427 37.1139 23.3591 37.5977 23.2047 38.128C23.0503 38.6584 23.0298 39.2188 23.1451 39.759C23.2604 40.2992 23.5079 40.8024 23.8654 41.2235C24.2229 41.6446 24.6793 41.9704 25.1936 42.1718C25.708 42.3733 26.2642 42.444 26.8126 42.3776C27.361 42.3113 27.8844 42.11 28.3359 41.7917C28.7874 41.4735 29.1529 41.0482 29.3996 40.554C29.6464 40.0599 29.7668 39.5122 29.75 38.96C29.7169 38.5554 29.7663 38.1482 29.8952 37.7631C30.0241 37.3781 30.2299 37.0232 30.5 36.72C30.7992 36.4445 31.1539 36.2359 31.5401 36.1083C31.9264 35.9807 32.3355 35.937 32.74 35.98C33.4538 36.0004 34.1552 35.7899 34.74 35.38C34.8989 35.2643 35.0493 35.1373 35.19 35C35.5251 34.6736 35.7845 34.2776 35.95 33.84C36.1248 33.4227 36.2067 32.9722 36.19 32.5201C36.1334 31.7035 36.4032 30.8979 36.94 30.28C37.2403 30.0025 37.5962 29.792 37.9842 29.6627C38.3721 29.5334 38.7832 29.4882 39.19 29.53H39.24Z" fill="black"/>
<path d="M26.3098 16.6C26.7651 16.6114 27.2178 16.5284 27.6395 16.3563C28.0611 16.1842 28.4426 15.9267 28.7598 15.6C29.3871 14.9728 29.7395 14.122 29.7395 13.235C29.7395 12.3479 29.3871 11.4972 28.7598 10.87C28.1326 10.2428 27.2819 9.89038 26.3948 9.89038C25.5078 9.89038 24.6571 10.2428 24.0298 10.87C23.697 11.1911 23.4359 11.5789 23.2636 12.0081C23.0912 12.4372 23.0116 12.8979 23.0298 13.36C23.0716 13.7652 23.0263 14.1747 22.8969 14.561C22.7676 14.9474 22.5572 15.3016 22.2798 15.6C21.6435 16.1381 20.8208 16.4039 19.9898 16.34C19.175 16.3329 18.3882 16.6369 17.7898 17.19L17.5798 17.39C17.41 17.5634 17.2591 17.7545 17.1298 17.96C16.755 18.5206 16.5692 19.1863 16.5998 19.86C16.647 20.2655 16.6042 20.6765 16.4746 21.0636C16.345 21.4508 16.1317 21.8046 15.8498 22.1C15.2129 22.6379 14.3916 22.9069 13.5598 22.85C13.1072 22.8358 12.6566 22.9176 12.2378 23.09C11.819 23.2623 11.4414 23.5213 11.1298 23.85C10.7425 24.2439 10.459 24.7276 10.3046 25.258C10.1501 25.7884 10.1297 26.3487 10.245 26.8889C10.3603 27.4292 10.6078 27.9323 10.9653 28.3534C11.3228 28.7745 11.7791 29.1004 12.2935 29.3018C12.8078 29.5032 13.3641 29.5739 13.9125 29.5076C14.4609 29.4412 14.9842 29.2399 15.4357 28.9217C15.8872 28.6034 16.2527 28.1782 16.4995 27.684C16.7463 27.1898 16.8667 26.6421 16.8498 26.09C16.8194 25.684 16.87 25.2759 16.9988 24.8896C17.1275 24.5034 17.3319 24.1466 17.5998 23.84C17.8991 23.5644 18.2537 23.3559 18.64 23.2283C19.0263 23.1007 19.4353 23.0569 19.8398 23.1C20.5539 23.1217 21.2557 22.9112 21.8398 22.5C22.0011 22.3873 22.1517 22.2601 22.2898 22.12C22.6189 21.7906 22.8745 21.3952 23.0398 20.96C23.2064 20.5442 23.2814 20.0974 23.2598 19.65C23.231 19.2448 23.2833 18.838 23.4138 18.4533C23.5444 18.0687 23.7504 17.7139 24.0198 17.41C24.3197 17.1348 24.6741 16.9258 25.06 16.7966C25.4459 16.6674 25.8547 16.6208 26.2598 16.66L26.3098 16.6Z" fill="black"/>
</svg>
