<svg width="48" height="56" viewBox="0 0 48 56" fill="none" xmlns="http://www.w3.org/2000/svg">
<path fill-rule="evenodd" clip-rule="evenodd" d="M18.6 42.52V0H28.03V16.57C30.2269 14.7644 32.9864 13.7845 35.83 13.8C42.98 13.8 47.83 18.69 47.83 26.62V42.52H38.39V28.12C38.39 24.12 36.39 22.25 33.27 22.25C32.2485 22.3251 31.2541 22.6141 30.3514 23.0982C29.4487 23.5822 28.6578 24.2506 28.03 25.06V42.52H18.6ZM0 46.86C4.18 46.86 5.23 45.75 5.23 42.41V14.62H14.73V41.17C14.73 50.03 11.19 55.17 0.0299988 55.45L0 46.86Z" fill="#06185F"/>
<path d="M10.01 11.68C8.86201 11.6662 7.74373 11.3131 6.79589 10.6653C5.84805 10.0174 5.11299 9.10374 4.6832 8.03913C4.25341 6.97452 4.1481 5.80658 4.38051 4.68226C4.61292 3.55794 5.17266 2.52747 5.98932 1.72052C6.80598 0.913566 7.84307 0.366176 8.97009 0.147225C10.0971 -0.0717261 11.2637 0.0475442 12.3231 0.490029C13.3825 0.932513 14.2873 1.67844 14.9238 2.63396C15.5603 3.58948 15.8999 4.7119 15.9 5.85999C15.8974 6.62945 15.7428 7.39081 15.445 8.10032C15.1472 8.80982 14.7121 9.45348 14.1648 9.99432C13.6175 10.5351 12.9686 10.9625 12.2556 11.2518C11.5426 11.5411 10.7794 11.6866 10.01 11.68Z" fill="url(#paint0_linear_118_438)"/>
<defs>
<linearGradient id="paint0_linear_118_438" x1="10.01" y1="2.11999" x2="10.01" y2="10.57" gradientUnits="userSpaceOnUse">
<stop stop-color="#76DCFD"/>
<stop offset="1" stop-color="#085CE5"/>
</linearGradient>
</defs>
</svg>
