<svg width="85" height="13" viewBox="0 0 85 13" fill="none" xmlns="http://www.w3.org/2000/svg">
<path d="M69.79 6.49C69.79 2.33 73.06 0 77.06 0C80.79 0 83.85 2.26 84.13 5.4H80.29C80.0856 4.71486 79.6548 4.11931 79.0681 3.71063C78.4815 3.30195 77.7735 3.10431 77.06 3.15C76.1715 3.15 75.3194 3.50295 74.6912 4.1312C74.0629 4.75944 73.71 5.61152 73.71 6.5C73.71 7.38848 74.0629 8.24056 74.6912 8.86881C75.3194 9.49706 76.1715 9.85 77.06 9.85C77.7808 9.89661 78.4956 9.6933 79.084 9.27434C79.6723 8.85538 80.0983 8.24638 80.29 7.55H84.15C83.85 11.04 80.79 12.99 77.06 12.99C73.06 12.99 69.79 10.45 69.79 6.49Z" fill="black"/>
<path d="M64.87 0.290001H68.62V12.71H64.87V0.290001Z" fill="black"/>
<path d="M63.75 0.290001V12.71H59.98V7.87H54.13V12.71H50.38V0.290001H54.13V4.87H59.98V0.290001H63.75Z" fill="black"/>
<path d="M49.25 0.290001V3.29H44.56V12.71H40.79V3.29H36.1V0.290001H49.25Z" fill="black"/>
<path d="M31.2 0.290001H34.95V12.71H31.2V0.290001Z" fill="black"/>
<path d="M22.87 9.62H30.09V12.73H19.09V0.290001H22.87V9.62Z" fill="black"/>
<path d="M0 3.09C2.62 3.15 3.75 2.31 3.81 0.27H7.18V2.97C7.18027 3.08183 7.15078 3.19171 7.09454 3.28837C7.0383 3.38503 6.95735 3.46497 6.86 3.52L3.75 5.83C3.46569 6.05865 3.11467 6.18852 2.75 6.2H0V3.09ZM14.93 3.09V6.2H12.18C11.8164 6.18303 11.4671 6.05377 11.18 5.83L8.07 3.52C7.97585 3.46137 7.89747 3.38061 7.8417 3.28474C7.78592 3.18888 7.75444 3.08082 7.75 2.97V0.290001H11.13C11.18 2.29 12.32 3.15 14.93 3.09ZM0 9.88V6.77H2.76C3.12787 6.77398 3.48233 6.90868 3.76 7.15L6.87 9.46C6.96667 9.51581 7.04706 9.59593 7.1032 9.69241C7.15933 9.78889 7.18926 9.89838 7.19 10.01V12.71H3.81C3.75 10.67 2.62 9.83 0 9.88ZM14.93 9.88C12.32 9.83 11.18 10.67 11.13 12.71H7.75V10.01C7.75074 9.89838 7.78067 9.78889 7.8368 9.69241C7.89294 9.59593 7.97333 9.51581 8.07 9.46L11.18 7.15C11.463 6.91776 11.8142 6.78432 12.18 6.77H14.93V9.88Z" fill="black"/>
</svg>
