<svg width="81" height="21" viewBox="0 0 81 21" fill="none" xmlns="http://www.w3.org/2000/svg">
<path d="M64.0895 7.07005C63.6529 7.07103 63.2218 7.16729 62.8263 7.3521C62.4308 7.53691 62.0803 7.80582 61.7995 8.14005V3.55005H59.7095V16.8301H61.7995V11.17C61.7598 10.617 61.9353 10.07 62.2893 9.64326C62.6434 9.21654 63.1486 8.9431 63.6995 8.88005C63.9586 8.83819 64.2239 8.85586 64.4753 8.93172C64.7266 9.00759 64.9573 9.13966 65.1501 9.31792C65.3428 9.49619 65.4924 9.71598 65.5876 9.96064C65.6828 10.2053 65.721 10.4684 65.6995 10.73V16.8301H67.7795V10.76C67.8101 10.2546 67.7372 9.74818 67.5653 9.27188C67.3933 8.79557 67.1259 8.35939 66.7795 7.99005C66.4258 7.66122 66.0075 7.4096 65.5513 7.25121C65.095 7.09282 64.6108 7.03113 64.1295 7.07005H64.0895Z" fill="black"/>
<path d="M54.7095 15.04C54.1928 15.0471 53.683 14.9205 53.2296 14.6726C52.7762 14.4247 52.3945 14.0639 52.1215 13.6252C51.8485 13.1864 51.6935 12.6846 51.6715 12.1683C51.6494 11.652 51.7611 11.1388 51.9957 10.6784C52.2303 10.2179 52.5798 9.82591 53.0105 9.54027C53.4411 9.25464 53.9382 9.08508 54.4536 9.04803C54.969 9.01098 55.4853 9.10769 55.9524 9.3288C56.4194 9.5499 56.8214 9.8879 57.1195 10.31L58.5495 8.79003C58.0785 8.23057 57.4906 7.78123 56.8271 7.47368C56.1636 7.16613 55.4408 7.00786 54.7095 7.01003C53.8572 7.01003 53.0191 7.22789 52.2747 7.64292C51.5302 8.05796 50.9043 8.65638 50.4562 9.38138C50.0081 10.1064 49.7528 10.9339 49.7145 11.7853C49.6762 12.6367 49.8562 13.4838 50.2373 14.2461C50.6185 15.0084 51.1882 15.6606 51.8923 16.1408C52.5964 16.621 53.4116 16.9133 54.2604 16.9898C55.1093 17.0664 55.9636 16.9247 56.7423 16.5782C57.5209 16.2317 58.1981 15.6919 58.7095 15.01L57.2195 13.49C56.9802 13.9531 56.6169 14.3405 56.1701 14.6089C55.7233 14.8774 55.2107 15.0162 54.6895 15.01L54.7095 15.04Z" fill="black"/>
<path d="M46.5295 7.32999V8.07999C46.0744 7.67355 45.5322 7.37664 44.9447 7.21198C44.3571 7.04732 43.7396 7.01927 43.1395 7.12999C42.0299 7.35351 41.0331 7.95734 40.3211 8.8373C39.6091 9.71725 39.2265 10.8181 39.2395 11.95C39.1195 14.95 41.0195 16.95 43.3995 17.1C43.9931 17.1736 44.5957 17.0883 45.1456 16.8529C45.6955 16.6175 46.173 16.2403 46.5295 15.76V16.83H48.6095V7.32999H46.5295ZM45.8695 14.33C45.6369 14.6039 45.3448 14.821 45.0155 14.9648C44.6863 15.1087 44.3285 15.1754 43.9695 15.16C43.2362 15.0489 42.5671 14.6785 42.0835 14.1161C41.5999 13.5538 41.334 12.8367 41.334 12.095C41.334 11.3533 41.5999 10.6362 42.0835 10.0739C42.5671 9.51149 43.2362 9.14113 43.9695 9.02999C44.3294 9.0075 44.6894 9.07106 45.0198 9.21539C45.3502 9.35973 45.6415 9.58069 45.8695 9.85999C46.3766 10.4928 46.6329 11.2902 46.5895 12.1C46.6361 12.9071 46.3793 13.7025 45.8695 14.33Z" fill="black"/>
<path d="M76.1996 7.33009V8.08009C75.7473 7.66906 75.2054 7.36917 74.6169 7.20426C74.0285 7.03934 73.4096 7.01395 72.8096 7.13009C71.7009 7.35539 70.7051 7.95971 69.9935 8.83927C69.2818 9.71882 68.8986 10.8187 68.9096 11.9501C68.839 12.5631 68.8914 13.184 69.0637 13.7766C69.236 14.3691 69.5248 14.9213 69.9131 15.4008C70.3014 15.8804 70.7814 16.2777 71.3251 16.5695C71.8689 16.8612 72.4653 17.0416 73.0796 17.1001C73.6719 17.175 74.2734 17.0903 74.822 16.8547C75.3705 16.6191 75.8461 16.2412 76.1996 15.7601V16.8301H78.2896V7.33009H76.1996ZM75.5496 14.3301C75.315 14.6042 75.0211 14.8213 74.6902 14.9651C74.3593 15.1089 74.0001 15.1756 73.6396 15.1601C72.9063 15.049 72.2372 14.6786 71.7536 14.1162C71.27 13.5539 71.0041 12.8368 71.0041 12.0951C71.0041 11.3534 71.27 10.6363 71.7536 10.0739C72.2372 9.51158 72.9063 9.14122 73.6396 9.03009C74.0009 9.00762 74.3624 9.07113 74.6944 9.21541C75.0264 9.35969 75.3195 9.58062 75.5496 9.86009C76.0498 10.4961 76.3021 11.2921 76.2596 12.1001C76.3052 12.9054 76.0524 13.6993 75.5496 14.3301Z" fill="black"/>
<path d="M35.7196 11.92L27.8996 3.49004C27.8726 3.46629 27.8398 3.45022 27.8045 3.44355C27.7692 3.43687 27.7327 3.43983 27.699 3.4521C27.6652 3.46438 27.6354 3.48553 27.6126 3.51332C27.5898 3.54111 27.575 3.57452 27.5696 3.61004V16.83H29.7396V8.76004L37.5696 17.04C37.595 17.0678 37.628 17.0874 37.6645 17.0963C37.701 17.1053 37.7394 17.1032 37.7747 17.0903C37.81 17.0775 37.8407 17.0545 37.863 17.0241C37.8852 16.9938 37.8979 16.9576 37.8996 16.92V3.55004H35.7196V11.92Z" fill="black"/>
<path d="M78.2896 3.55005H79.1496V3.67005H78.7896V4.67005H78.6395V3.67005H78.2896V3.55005Z" fill="black"/>
<path d="M79.8297 4.68008L79.5097 3.82008V4.68008H79.3896V3.58008H79.5396L79.8896 4.48008L80.2496 3.58008H80.3997V4.68008H80.2796V3.82008L79.9496 4.68008H79.8297Z" fill="black"/>
<path d="M15.8397 8.16994C15.3835 8.16798 14.9371 8.3017 14.5571 8.55412C14.1771 8.80653 13.8808 9.16624 13.7058 9.5875C13.5308 10.0088 13.485 10.4725 13.5742 10.9199C13.6635 11.3673 13.8837 11.778 14.207 12.0998C14.5303 12.4217 14.9419 12.6401 15.3897 12.7274C15.8374 12.8147 16.301 12.7669 16.7215 12.59C17.142 12.4132 17.5004 12.1153 17.7511 11.7342C18.0019 11.3531 18.1337 10.9061 18.1297 10.4499C18.1219 9.84596 17.8778 9.26906 17.4497 8.84287C17.0217 8.41669 16.4437 8.17512 15.8397 8.16994Z" fill="#0CC400"/>
<path d="M10.2296 4.82994C9.85847 4.82598 9.49458 4.93252 9.18423 5.13602C8.87387 5.33952 8.63108 5.63076 8.48677 5.97268C8.34246 6.31459 8.30315 6.69171 8.37384 7.05604C8.44453 7.42037 8.62204 7.75542 8.88375 8.01855C9.14547 8.28168 9.47956 8.46099 9.8435 8.53365C10.2074 8.6063 10.5848 8.56902 10.9275 8.42656C11.2701 8.28409 11.5627 8.04287 11.7679 7.73362C11.973 7.42436 12.0815 7.06106 12.0796 6.68994C12.077 6.19916 11.8815 5.72908 11.5355 5.38111C11.1894 5.03314 10.7203 4.83518 10.2296 4.82994Z" fill="#0CC400"/>
<path d="M10.2296 12.3699C9.85974 12.3679 9.49762 12.4757 9.18901 12.6795C8.8804 12.8833 8.63916 13.1741 8.4958 13.515C8.35244 13.856 8.3134 14.2318 8.38362 14.5949C8.45383 14.958 8.63015 15.2922 8.89027 15.5551C9.15039 15.818 9.48263 15.9979 9.84498 16.072C10.2073 16.1461 10.5835 16.111 10.926 15.9713C11.2684 15.8316 11.5617 15.5935 11.7689 15.2871C11.976 14.9807 12.0876 14.6197 12.0896 14.2499C12.0909 14.0043 12.0438 13.7609 11.9511 13.5335C11.8583 13.3061 11.7217 13.0992 11.549 12.9247C11.3762 12.7501 11.1708 12.6113 10.9444 12.5161C10.7181 12.4209 10.4752 12.3712 10.2296 12.3699Z" fill="#0CC400"/>
<path d="M5.41966 5.14999C6.25913 5.14999 6.93966 4.46946 6.93966 3.62999C6.93966 2.79051 6.25913 2.10999 5.41966 2.10999C4.58019 2.10999 3.89966 2.79051 3.89966 3.62999C3.89966 4.46946 4.58019 5.14999 5.41966 5.14999Z" fill="#0CC400"/>
<path d="M1.26964 0.0199344C1.01876 0.0180141 0.773015 0.0910374 0.563888 0.229647C0.354762 0.368257 0.191778 0.56614 0.0958137 0.797953C-0.000150733 1.02977 -0.0247256 1.28495 0.025238 1.53082C0.0752015 1.77668 0.197428 2.00204 0.37626 2.17801C0.555092 2.35398 0.782386 2.47255 1.02903 2.51855C1.27567 2.56454 1.53042 2.53585 1.76066 2.43616C1.99089 2.33647 2.18612 2.17031 2.32134 1.95898C2.45656 1.74764 2.52561 1.50075 2.51964 1.24993C2.51186 0.922711 2.37705 0.611358 2.14374 0.381785C1.91044 0.152212 1.59695 0.0224396 1.26964 0.0199344Z" fill="#0CC400"/>
<path d="M5.41966 18.8099C6.25913 18.8099 6.93966 18.1294 6.93966 17.2899C6.93966 16.4504 6.25913 15.7699 5.41966 15.7699C4.58019 15.7699 3.89966 16.4504 3.89966 17.2899C3.89966 18.1294 4.58019 18.8099 5.41966 18.8099Z" fill="#0CC400"/>
<path d="M1.26953 18.3999C1.02231 18.3999 0.780631 18.4732 0.575069 18.6106C0.369508 18.7479 0.209292 18.9431 0.114682 19.1715C0.0200725 19.4 -0.00468119 19.6513 0.0435503 19.8938C0.0917819 20.1362 0.210833 20.359 0.385649 20.5338C0.560464 20.7086 0.783193 20.8276 1.02567 20.8759C1.26815 20.9241 1.51948 20.8994 1.74789 20.8047C1.97629 20.7101 2.17152 20.5499 2.30887 20.3444C2.44622 20.1388 2.51953 19.8971 2.51953 19.6499C2.51953 19.3184 2.38784 19.0004 2.15342 18.766C1.91899 18.5316 1.60105 18.3999 1.26953 18.3999Z" fill="#0CC400"/>
<path d="M4.84971 8.16994C4.39354 8.16798 3.9471 8.3017 3.56712 8.55412C3.18715 8.80653 2.89082 9.16624 2.71581 9.5875C2.54079 10.0088 2.495 10.4725 2.58424 10.9199C2.67349 11.3673 2.89375 11.778 3.21701 12.0998C3.54028 12.4217 3.95195 12.6401 4.39969 12.7274C4.84743 12.8147 5.31102 12.7669 5.73151 12.59C6.152 12.4132 6.5104 12.1153 6.76115 11.7342C7.0119 11.3531 7.14367 10.9061 7.13971 10.4499C7.13445 9.84515 6.89119 9.26676 6.46258 8.84002C6.03397 8.41329 5.45452 8.17255 4.84971 8.16994Z" fill="#016EFF"/>
<path d="M15.2798 5.14999C16.1192 5.14999 16.7998 4.46946 16.7998 3.62999C16.7998 2.79051 16.1192 2.10999 15.2798 2.10999C14.4403 2.10999 13.7598 2.79051 13.7598 3.62999C13.7598 4.46946 14.4403 5.14999 15.2798 5.14999Z" fill="#016EFF"/>
<path d="M19.4297 2.51996C19.6789 2.52193 19.9231 2.44996 20.1314 2.31316C20.3397 2.17635 20.5027 1.98086 20.5999 1.75139C20.6971 1.52192 20.7241 1.26878 20.6774 1.02399C20.6307 0.779203 20.5125 0.553748 20.3377 0.376143C20.1629 0.198539 19.9393 0.076759 19.6953 0.0262022C19.4513 -0.0243546 19.1978 -0.00141494 18.9668 0.0921164C18.7358 0.185648 18.5377 0.345571 18.3976 0.551665C18.2575 0.75776 18.1817 1.00077 18.1797 1.24996C18.1784 1.41543 18.2097 1.57953 18.2718 1.73291C18.3339 1.88628 18.4256 2.02592 18.5417 2.14386C18.6578 2.26179 18.7959 2.3557 18.9483 2.42023C19.1007 2.48477 19.2643 2.51865 19.4297 2.51996Z" fill="#016EFF"/>
<path d="M15.2798 18.81C16.1192 18.81 16.7998 18.1295 16.7998 17.29C16.7998 16.4505 16.1192 15.77 15.2798 15.77C14.4403 15.77 13.7598 16.4505 13.7598 17.29C13.7598 18.1295 14.4403 18.81 15.2798 18.81Z" fill="#016EFF"/>
<path d="M19.4297 18.3999C19.1829 18.4019 18.9422 18.4769 18.738 18.6154C18.5337 18.754 18.3751 18.9499 18.282 19.1785C18.1889 19.4071 18.1656 19.6581 18.2149 19.8999C18.2643 20.1417 18.3841 20.3635 18.5593 20.5373C18.7345 20.7111 18.9573 20.8292 19.1995 20.8766C19.4417 20.924 19.6925 20.8987 19.9203 20.8038C20.1482 20.7089 20.3428 20.5487 20.4797 20.3434C20.6166 20.138 20.6897 19.8967 20.6897 19.6499C20.6897 19.4849 20.657 19.3216 20.5936 19.1693C20.5302 19.017 20.4372 18.8787 20.3201 18.7625C20.2029 18.6463 20.0639 18.5544 19.9111 18.4922C19.7583 18.43 19.5947 18.3986 19.4297 18.3999Z" fill="#016EFF"/>
</svg>
