<svg width="58" height="44" viewBox="0 0 58 44" fill="none" xmlns="http://www.w3.org/2000/svg">
<path d="M48.995 43.92H48.565C47.6056 43.8895 46.6613 43.6721 45.785 43.28C45.1475 43.0059 44.578 42.5952 44.1166 42.0768C43.6553 41.5584 43.3133 40.945 43.115 40.28C42.4373 38.2898 42.4128 36.1352 43.045 34.13C43.3214 33.1369 43.8894 32.2495 44.6756 31.5827C45.4618 30.9159 46.4301 30.5004 47.455 30.39C48.57 30.1979 49.7135 30.2525 50.805 30.55C51.5621 30.7595 52.2617 31.1385 52.8507 31.6582C53.4398 32.178 53.9029 32.8249 54.205 33.55C54.6206 34.4705 54.8581 35.4612 54.905 36.47C55.0111 37.8316 54.8059 39.1995 54.305 40.47C54.0228 41.2248 53.5657 41.902 52.9713 42.4461C52.3768 42.9902 51.6618 43.3856 50.885 43.6C50.271 43.7858 49.636 43.8933 48.995 43.92Z" fill="#282828"/>
<path fill-rule="evenodd" clip-rule="evenodd" d="M56.3146 41.7342C56.4194 41.7342 56.5056 41.7523 56.5728 41.7881C56.6401 41.8235 56.6899 41.8721 56.7223 41.9341C56.7546 41.9962 56.7707 42.0669 56.7707 42.146C56.7707 42.2251 56.7546 42.2953 56.7223 42.3564C56.6899 42.4176 56.6404 42.4657 56.5735 42.5007C56.5568 42.5093 56.5387 42.5167 56.5197 42.5232L56.8232 43.0769H56.6344L56.3506 42.5509C56.3397 42.5513 56.3285 42.5525 56.3171 42.5525H56.0234V43.0769H55.8607V41.7342H56.3146ZM56.0234 42.4056H56.3119C56.3835 42.4056 56.4413 42.395 56.485 42.374C56.5291 42.353 56.5611 42.3235 56.5807 42.285C56.6008 42.2461 56.6107 42.1997 56.6107 42.146C56.6107 42.0923 56.6008 42.0453 56.5807 42.0051C56.5606 41.9649 56.5284 41.9339 56.4843 41.912C56.4401 41.8897 56.3817 41.8785 56.3092 41.8785H56.0234V42.4056Z" fill="black"/>
<path fill-rule="evenodd" clip-rule="evenodd" d="M56.2751 41C57.1036 41 57.7751 41.6716 57.7751 42.5C57.7751 43.3284 57.1036 44 56.2751 44C55.4467 44 54.7751 43.3284 54.7751 42.5C54.7751 41.6716 55.4467 41 56.2751 41ZM56.2751 41.2308C55.5742 41.2308 55.0059 41.799 55.0059 42.5C55.0059 43.201 55.5742 43.7692 56.2751 43.7692C56.9761 43.7692 57.5444 43.201 57.5444 42.5C57.5444 41.799 56.9761 41.2308 56.2751 41.2308Z" fill="black"/>
<path d="M41.7751 43.92H38.3351C38.3301 43.8534 38.3301 43.7866 38.3351 43.72V35.51C38.3432 35.2277 38.3163 34.9456 38.2551 34.67C38.2057 34.424 38.1055 34.1911 37.9609 33.9862C37.8162 33.7813 37.6303 33.6089 37.4151 33.48C37.0475 33.2419 36.626 33.0997 36.1893 33.0665C35.7526 33.0333 35.3145 33.1102 34.9151 33.29C34.5342 33.432 34.2085 33.6919 33.9855 34.0318C33.7625 34.3718 33.6537 34.774 33.6751 35.18C33.6602 35.2492 33.6602 35.3208 33.6751 35.39V43.7C33.6899 43.7726 33.6899 43.8474 33.6751 43.92H30.1151C30.1151 41.34 30.1151 38.77 30.1151 36.19C30.0998 35.4229 30.1805 34.657 30.3551 33.91C30.537 32.9612 31.0733 32.1174 31.8551 31.55C32.6619 31.0119 33.5652 30.635 34.5151 30.44C35.4398 30.2398 36.395 30.2251 37.3253 30.3968C38.2557 30.5684 39.1428 30.923 39.9351 31.44C40.7166 31.9481 41.2691 32.7409 41.4751 33.65C41.6897 34.428 41.7907 35.233 41.7751 36.04V43.81C41.7784 43.8466 41.7784 43.8834 41.7751 43.92Z" fill="#282828"/>
<path d="M11.6651 43.9201H8.21514C8.21514 43.8401 8.21514 43.7701 8.21514 43.7001V35.5201C8.22002 35.2621 8.19993 35.0042 8.15514 34.7501C8.116 34.4951 8.02252 34.2516 7.88105 34.0359C7.73957 33.8203 7.5534 33.6375 7.33514 33.5001C6.91982 33.2229 6.43442 33.0692 5.93527 33.0569C5.43613 33.0445 4.9437 33.1739 4.51514 33.4301C4.23205 33.5853 3.99449 33.8118 3.82608 34.0872C3.65767 34.3627 3.56426 34.6774 3.55514 35.0001C3.55514 35.2101 3.55514 35.4201 3.55514 35.6301C3.55514 38.3501 3.55514 41.0601 3.55514 43.7801C3.5601 43.84 3.5601 43.9002 3.55514 43.9601H0.00513864C0.00513864 41.3667 0.00513864 38.7767 0.00513864 36.1901C-0.0307861 35.197 0.121912 34.2062 0.455139 33.2701C0.736614 32.5006 1.2777 31.8534 1.98514 31.4401C3.18735 30.6985 4.57263 30.3072 5.98514 30.3101C7.3468 30.3313 8.67597 30.7293 9.82514 31.4601C10.6123 31.9799 11.1706 32.7815 11.3851 33.7001C11.5842 34.4165 11.6851 35.1565 11.6851 35.9001V43.9001C11.6851 43.9001 11.6651 43.8901 11.6651 43.9201Z" fill="#282828"/>
<path d="M24.5351 39.1101C24.4436 39.5673 24.3028 40.0132 24.1151 40.4401C23.851 41.144 23.4314 41.7794 22.8878 42.2988C22.3442 42.8182 21.6904 43.2083 20.9751 43.4401C19.2815 44.0355 17.4262 43.9748 15.7751 43.2701C15.0915 43.0062 14.478 42.5883 13.982 42.049C13.486 41.5097 13.1209 40.8633 12.9151 40.1601C12.2552 38.1632 12.2552 36.007 12.9151 34.0101C13.2031 33.0189 13.7823 32.1371 14.5776 31.4792C15.3729 30.8212 16.3475 30.4174 17.3751 30.3201C18.4041 30.1682 19.4525 30.2123 20.4651 30.4501C21.2536 30.6355 21.9874 31.0036 22.6075 31.5247C23.2276 32.0458 23.7166 32.7053 24.0351 33.4501C24.2369 33.8945 24.3975 34.3564 24.5151 34.8301C24.5151 34.9401 24.5151 34.9701 24.4051 34.9701H21.1551C21.0451 34.9701 21.0051 34.9701 20.9651 34.8301C20.831 34.4674 20.6205 34.1377 20.3479 33.8634C20.0753 33.589 19.747 33.3765 19.3851 33.2401C18.7443 33.0315 18.0475 33.0809 17.4426 33.3778C16.8376 33.6747 16.3722 34.1956 16.1451 34.8301C15.9706 35.3157 15.8695 35.8246 15.8451 36.3401C15.7892 37.3804 15.9144 38.4226 16.2151 39.4201C16.3255 39.7329 16.4973 40.0206 16.7204 40.2661C16.9436 40.5116 17.2135 40.7101 17.5144 40.8498C17.8153 40.9896 18.1411 41.0678 18.4727 41.0798C18.8042 41.0919 19.1348 41.0376 19.4451 40.9201C19.8001 40.7717 20.1188 40.5483 20.3794 40.2652C20.6401 39.9821 20.8364 39.6461 20.9551 39.2801C20.9631 39.2465 20.9779 39.215 20.9987 39.1875C21.0194 39.1599 21.0457 39.137 21.0757 39.1201C21.1058 39.1032 21.139 39.0927 21.1733 39.0892C21.2076 39.0858 21.2423 39.0895 21.2751 39.1001H24.5751L24.5351 39.1101Z" fill="#282828"/>
<path d="M28.8252 31.7V43.7C28.8252 43.94 28.8252 43.94 28.5952 43.94H25.3452C25.3452 43.87 25.3452 43.8 25.3452 43.74V30.43C25.3452 30.26 25.3452 30.22 25.5552 30.22H27.1352C27.519 30.2108 27.8944 30.3326 28.1998 30.5652C28.5051 30.7979 28.7222 31.1275 28.8152 31.5C28.8152 31.57 28.8152 31.64 28.8252 31.7Z" fill="#282828"/>
<path d="M28.8251 29.79C28.5819 29.5133 28.2669 29.3091 27.9151 29.2C27.71 29.1433 27.4978 29.1163 27.2851 29.12C26.6951 29.12 26.1051 29.12 25.5251 29.12C25.3551 29.12 25.3251 29.07 25.3351 28.91C25.3203 28.6435 25.3203 28.3765 25.3351 28.11C25.4056 27.7334 25.6027 27.3923 25.8937 27.1431C26.1847 26.8939 26.5521 26.7517 26.9351 26.74C27.5251 26.74 28.1051 26.74 28.6951 26.74C28.7751 26.74 28.8251 26.74 28.8251 26.85V29.78V29.79Z" fill="#282828"/>
<path d="M51.5051 37C51.5154 37.7847 51.3937 38.5656 51.1451 39.31C51.0175 39.6959 50.8048 40.0482 50.5226 40.3407C50.2405 40.6332 49.8961 40.8586 49.5151 41C48.9085 41.1957 48.2499 41.1513 47.6751 40.8759C47.1002 40.6006 46.6529 40.1153 46.4251 39.52C45.9344 38.0948 45.8822 36.5552 46.2751 35.1C46.3179 34.9641 46.368 34.8306 46.4251 34.7C46.6973 34.1025 47.1871 33.6312 47.7947 33.3822C48.4022 33.1333 49.0819 33.1253 49.6951 33.36C50.0755 33.5267 50.4144 33.7754 50.6875 34.0883C50.9606 34.4012 51.1613 34.7706 51.2751 35.17C51.443 35.765 51.5206 36.3819 51.5051 37Z" fill="#FEFEFE"/>
<rect x="13.7751" y="12" width="6" height="12" rx="0.15" fill="#3F87AF"/>
<rect x="21.7751" y="6" width="6" height="18" rx="0.15" fill="#9BBA58"/>
<rect x="29.7751" y="10" width="6" height="14" rx="0.15" fill="#DA9E54"/>
<rect x="37.7751" width="6" height="24" rx="0.15" fill="#963437"/>
</svg>
