<svg width="66" height="43" viewBox="0 0 66 43" fill="none" xmlns="http://www.w3.org/2000/svg">
<path d="M46.6101 11.596L35.9901 22.216C35.8784 22.323 35.7297 22.3827 35.5751 22.3827C35.4204 22.3827 35.2718 22.323 35.1601 22.216L28.0601 15.116C27.734 14.7897 27.5508 14.3473 27.5508 13.886C27.5508 13.4247 27.734 12.9823 28.0601 12.656L28.3701 12.346C28.396 12.3368 28.4242 12.3368 28.4501 12.346C28.4791 12.3353 28.511 12.3353 28.5401 12.346L35.2501 19.056C35.3387 19.1375 35.4547 19.1828 35.5751 19.1828C35.6955 19.1828 35.8115 19.1375 35.9001 19.056L43.4401 11.506C43.4824 11.4641 43.516 11.4143 43.539 11.3594C43.5619 11.3045 43.5737 11.2455 43.5737 11.186C43.5737 11.1265 43.5619 11.0675 43.539 11.0126C43.516 10.9577 43.4824 10.9079 43.4401 10.866L35.9001 3.316C35.8115 3.23448 35.6955 3.18924 35.5751 3.18924C35.4547 3.18924 35.3387 3.23448 35.2501 3.316L19.0401 19.516C18.9826 19.5775 18.9072 19.6193 18.8246 19.6354C18.7421 19.6516 18.6565 19.6413 18.5801 19.606C18.5002 19.577 18.4313 19.5239 18.383 19.454C18.3346 19.3841 18.3091 19.301 18.3101 19.216V3.156C18.3097 3.07006 18.335 2.98597 18.3829 2.91458C18.4307 2.84319 18.4989 2.78778 18.5785 2.75549C18.6582 2.7232 18.7457 2.71552 18.8297 2.73343C18.9138 2.75135 18.9905 2.79404 19.0501 2.856L23.4501 7.246C23.7768 7.57399 23.9602 8.01806 23.9602 8.481C23.9602 8.94394 23.7768 9.38801 23.4501 9.716L23.1401 10.016C23.1289 10.0272 23.1157 10.0361 23.1011 10.0421C23.0865 10.0482 23.0709 10.0513 23.0551 10.0513C23.0393 10.0513 23.0237 10.0482 23.0091 10.0421C22.9945 10.0361 22.9812 10.0272 22.9701 10.016L21.0401 8.086C21.0042 8.0533 20.9599 8.03129 20.9122 8.02245C20.8645 8.01362 20.8153 8.01831 20.7701 8.036C20.7218 8.05136 20.68 8.08224 20.651 8.12383C20.6221 8.16542 20.6077 8.21539 20.6101 8.266V14.106C20.6108 14.1555 20.6262 14.2038 20.6543 14.2445C20.6824 14.2853 20.7221 14.3168 20.7681 14.335C20.8142 14.3532 20.8647 14.3574 20.9131 14.3468C20.9615 14.3363 21.0057 14.3117 21.0401 14.276L35.1601 0.156C35.2749 0.0554347 35.4224 0 35.5751 0C35.7278 0 35.8752 0.0554347 35.9901 0.156L46.6101 10.776C46.7194 10.8865 46.7807 11.0356 46.7807 11.191C46.7807 11.3464 46.7194 11.4955 46.6101 11.606V11.596Z" fill="#2D29D7"/>
<path d="M19.4302 40.3259C19.0502 40.3259 18.8502 40.1259 18.8502 39.7059V35.4859C18.8831 34.9501 18.798 34.4137 18.601 33.9143C18.4041 33.415 18.1 32.9649 17.7102 32.5959C16.8257 31.8811 15.7051 31.5242 14.5702 31.5959C13.8067 31.5666 13.0459 31.7031 12.3402 31.9959C11.7777 32.2448 11.2787 32.6174 10.8802 33.0859C10.6996 33.3059 10.5421 33.5438 10.4102 33.7959L12.2702 34.6559C12.4097 34.3628 12.6069 34.1009 12.8502 33.8859C13.3232 33.5044 13.9243 33.3184 14.5302 33.3659C14.8288 33.3413 15.1294 33.3764 15.4144 33.4692C15.6994 33.5619 15.9631 33.7103 16.1902 33.9059C16.3723 34.0953 16.5141 34.3197 16.6069 34.5655C16.6998 34.8113 16.7417 35.0734 16.7302 35.3359V35.9959H13.6302C12.9475 35.987 12.2692 36.1057 11.6302 36.3459C11.0836 36.5449 10.6026 36.891 10.2402 37.3459C9.88649 37.8592 9.70765 38.4729 9.73016 39.0959C9.71034 39.7248 9.88876 40.344 10.2402 40.8659C10.5803 41.365 11.0555 41.757 11.6102 41.9959C12.2425 42.2623 12.9241 42.3918 13.6102 42.3759C14.195 42.3991 14.7781 42.2968 15.3202 42.0759C15.7066 41.9198 16.0496 41.6728 16.3202 41.3559C16.5133 41.1318 16.681 40.887 16.8202 40.6259H17.1302V40.6959C17.1239 40.8869 17.1622 41.0766 17.2421 41.2502C17.3219 41.4238 17.4411 41.5764 17.5902 41.6959C17.93 41.9582 18.3512 42.0927 18.7802 42.0759H19.6702V40.3259H19.4302ZM16.7602 37.8759C16.7749 38.2459 16.7123 38.6149 16.5763 38.9593C16.4402 39.3037 16.2338 39.6159 15.9702 39.8759C15.3993 40.3834 14.6533 40.6488 13.8902 40.6159C13.3637 40.6459 12.8424 40.498 12.4102 40.1959C12.2357 40.0673 12.0953 39.8981 12.0012 39.7029C11.9071 39.5077 11.8621 39.2924 11.8702 39.0759C11.8556 38.8662 11.8959 38.6564 11.987 38.467C12.0782 38.2776 12.2172 38.1152 12.3902 37.9959C12.7997 37.7396 13.2775 37.6141 13.7602 37.6359H16.7602V37.8759Z" fill="black"/>
<path d="M6.83 36.5459C6.18235 36.3063 5.51234 36.1321 4.83 36.0259L4.1 35.8959C3.63728 35.8292 3.19024 35.6801 2.78 35.4559C2.62319 35.3633 2.49468 35.2295 2.40832 35.0692C2.32197 34.9088 2.28106 34.7279 2.29 34.5459C2.2839 34.3647 2.3272 34.1852 2.41528 34.0266C2.50335 33.8681 2.63288 33.7365 2.79 33.6459C3.20889 33.4068 3.68862 33.2956 4.17 33.3259C4.69258 33.3095 5.20915 33.4412 5.66 33.7059C5.95496 33.9 6.17942 34.1841 6.3 34.5159L8.15 33.6559C7.87645 33.1367 7.48202 32.6908 7 32.3559C6.16414 31.8005 5.17242 31.5271 4.17 31.5759C3.15148 31.5206 2.14303 31.8017 1.3 32.3759C0.947722 32.6322 0.664616 32.9719 0.476109 33.3647C0.287601 33.7574 0.199595 34.1908 0.219999 34.6259C0.19161 35.2017 0.368829 35.7688 0.719999 36.2259C1.07555 36.6708 1.54082 37.0155 2.07 37.2259C2.68074 37.4676 3.3138 37.6484 3.96 37.7659L4.67 37.8859C5.20413 37.9694 5.72305 38.1311 6.21 38.3659C6.37395 38.4554 6.50955 38.589 6.60146 38.7516C6.69336 38.9142 6.73789 39.0993 6.73 39.2859C6.72766 39.485 6.67625 39.6804 6.58031 39.8549C6.48436 40.0293 6.34687 40.1774 6.18 40.2859C5.71207 40.5818 5.16245 40.7218 4.61 40.6859C4.17726 40.6851 3.74782 40.6107 3.34 40.4659C2.94533 40.3304 2.59813 40.0838 2.34 39.7559C2.13326 39.4878 1.98044 39.1822 1.89 38.8559L0 39.7359C0.242192 40.4614 0.712181 41.0892 1.34 41.5259C2.30752 42.1361 3.43697 42.4394 4.58 42.3959C5.66864 42.4549 6.7467 42.1564 7.65 41.5459C8.02445 41.2744 8.32495 40.9135 8.52408 40.496C8.72321 40.0785 8.81463 39.6178 8.79 39.1559C8.82278 38.558 8.63807 37.9683 8.27 37.4959C7.88133 37.0428 7.38172 36.6982 6.82 36.4959L6.83 36.5459Z" fill="black"/>
<path d="M40.7801 30.4759C40.4084 30.4729 40.0514 30.3301 39.7801 30.0759C39.5053 29.7955 39.3513 29.4185 39.3513 29.0259C39.3513 28.6333 39.5053 28.2563 39.7801 27.9759C40.0491 27.7183 40.4076 27.5749 40.7801 27.5759C40.9745 27.5686 41.1685 27.6002 41.3505 27.6689C41.5325 27.7376 41.699 27.842 41.8401 27.9759C42.1103 28.2587 42.2611 28.6348 42.2611 29.0259C42.2611 29.417 42.1103 29.7931 41.8401 30.0759C41.6996 30.2108 41.5333 30.3158 41.3511 30.3845C41.1689 30.4533 40.9747 30.4844 40.7801 30.4759ZM39.7001 42.1159V31.8659H41.8501V42.1159H39.7001Z" fill="black"/>
<path d="M31.92 42.4059C31.0845 42.4097 30.2634 42.1878 29.5435 41.7636C28.8236 41.3394 28.2316 40.7287 27.83 39.9959C27.3723 39.1211 27.1484 38.1428 27.18 37.1559V36.8459C27.1481 35.857 27.3683 34.8762 27.82 33.9959C28.2174 33.2436 28.8165 32.6169 29.55 32.1859C30.2715 31.7738 31.0892 31.5599 31.92 31.5659C32.4871 31.5495 33.0526 31.6341 33.59 31.8159C33.994 31.9595 34.3697 32.1727 34.7 32.4459C34.9656 32.6741 35.192 32.9444 35.37 33.2459H35.7V27.5659H37.84V42.1159H35.74V40.6559H35.41C35.1031 41.142 34.6935 41.555 34.21 41.8659C33.515 42.2636 32.7195 42.4512 31.92 42.4059ZM32.52 40.5359C32.943 40.5501 33.3643 40.4776 33.7582 40.3228C34.152 40.1681 34.51 39.9343 34.81 39.6359C35.1291 39.2943 35.3745 38.8908 35.531 38.4505C35.6876 38.0101 35.7519 37.5422 35.72 37.0759V36.8959C35.7487 36.4338 35.6838 35.9706 35.5291 35.5341C35.3745 35.0977 35.1333 34.6969 34.82 34.3559C34.5173 34.0591 34.1572 33.827 33.7617 33.674C33.3663 33.521 32.9438 33.4502 32.52 33.4659C32.0993 33.45 31.6798 33.5208 31.2875 33.6739C30.8953 33.827 30.5387 34.0591 30.24 34.3559C29.9258 34.6963 29.684 35.0969 29.5293 35.5335C29.3746 35.9702 29.3102 36.4337 29.34 36.8959V37.0759C29.3098 37.5413 29.3739 38.0079 29.5286 38.4478C29.6833 38.8878 29.9253 39.2919 30.24 39.6359C30.5386 39.9335 30.8949 40.1669 31.287 40.3217C31.6791 40.4764 32.0987 40.5494 32.52 40.5359Z" fill="black"/>
<path d="M43.7102 42.1159V31.8659H45.8002V33.4059H46.1402C46.3661 32.9356 46.7108 32.5323 47.1402 32.2359C47.8088 31.836 48.5827 31.6478 49.3602 31.6959C50.0838 31.6849 50.7977 31.8642 51.4302 32.2159C52.0315 32.5637 52.5234 33.0729 52.8502 33.6859C53.2351 34.3939 53.4282 35.1903 53.4102 35.9959V42.1559H51.2702V36.1559C51.3064 35.7949 51.2664 35.4303 51.1527 35.0858C51.039 34.7413 50.8542 34.4245 50.6102 34.1559C50.1088 33.709 49.4508 33.4789 48.7802 33.5159C48.3826 33.4998 47.9863 33.5701 47.6186 33.722C47.2508 33.874 46.9204 34.1039 46.6502 34.3959C46.0702 35.1061 45.784 36.0114 45.8502 36.9259V42.1059L43.7102 42.1159Z" fill="black"/>
<path d="M20.8401 42.1159V31.8659H22.9401V33.0759H23.2701C23.4125 32.6725 23.6968 32.3348 24.0701 32.1259C24.4912 31.9138 24.9588 31.8106 25.4301 31.8259H26.6601V33.7559H25.3401C24.7196 33.7304 24.1112 33.9332 23.6301 34.3259C23.3975 34.5527 23.2177 34.828 23.1036 35.1322C22.9896 35.4364 22.944 35.762 22.9701 36.0859V42.0859H20.8401V42.1159Z" fill="black"/>
<path d="M62.5801 39.4859C62.4325 39.6704 62.2685 39.8411 62.0901 39.9959C61.5714 40.388 60.9288 40.5797 60.2801 40.5359C59.4857 40.5646 58.7125 40.2769 58.1301 39.7359C57.8382 39.4598 57.6066 39.1262 57.45 38.7562C57.2934 38.3861 57.2151 37.9877 57.2201 37.5859H65.1001V36.7759C65.1262 35.8315 64.9129 34.8958 64.4801 34.0559C64.0856 33.2957 63.4818 32.6642 62.7401 32.2359C61.9571 31.784 61.0638 31.5589 60.1601 31.5859C59.2283 31.5631 58.3071 31.7874 57.4901 32.2359C56.723 32.6645 56.0975 33.3074 55.6901 34.0859C55.2439 34.9471 55.0205 35.9062 55.0401 36.8759V37.1259C55.0196 38.0937 55.2468 39.0506 55.7001 39.9059C56.1207 40.6815 56.7515 41.3227 57.5201 41.7559C58.3556 42.2033 59.2926 42.4272 60.2401 42.4059C61.0212 42.4414 61.8003 42.3013 62.5201 41.9959C63.07 41.74 63.5604 41.3722 63.9601 40.9159C64.1164 40.7405 64.2633 40.5569 64.4001 40.3659L62.5801 39.5159V39.4859ZM58.1701 34.1259C58.7305 33.6631 59.4443 33.4275 60.1701 33.4659C60.8967 33.4215 61.6127 33.6577 62.1701 34.1259C62.4251 34.3547 62.6303 34.6334 62.7731 34.9447C62.9159 35.2561 62.9931 35.5934 63.0001 35.9359H57.2501C57.3223 35.2396 57.6501 34.5947 58.1701 34.1259Z" fill="black"/>
</svg>
