<svg width="54" height="54" viewBox="0 0 54 54" fill="none" xmlns="http://www.w3.org/2000/svg">
<path d="M45.7598 40.8116L34.4998 34.3116C33.7393 33.8757 32.8372 33.7583 31.9904 33.985C31.1437 34.2117 30.4209 34.764 29.9798 35.5216C29.634 36.1281 29.4838 36.8265 29.5498 37.5216V50.2116C29.5498 51.0868 29.8975 51.9262 30.5164 52.545C31.1353 53.1639 31.9746 53.5116 32.8498 53.5116C33.725 53.5116 34.5644 53.1639 35.1833 52.545C35.8022 51.9262 36.1498 51.0868 36.1498 50.2116V42.9016L42.4298 46.5416C42.8066 46.7738 43.2262 46.928 43.6636 46.9953C44.1011 47.0625 44.5476 47.0413 44.9767 46.9329C45.4058 46.8245 45.8089 46.6312 46.162 46.3644C46.5151 46.0975 46.8111 45.7626 47.0325 45.3793C47.2538 44.9961 47.3961 44.5723 47.4509 44.1331C47.5056 43.6939 47.4717 43.2482 47.3512 42.8223C47.2307 42.3965 47.026 41.9991 46.7492 41.6537C46.4725 41.3083 46.1292 41.022 45.7398 40.8116" fill="#29B5E8"/>
<path d="M17.7598 26.8716C17.7663 26.2943 17.6198 25.7256 17.3353 25.2232C17.0508 24.7209 16.6383 24.3029 16.1398 24.0116L4.87984 17.5116C4.5101 17.2952 4.10113 17.1544 3.67659 17.0971C3.25205 17.0399 2.82037 17.0674 2.40652 17.178C1.99268 17.2887 1.6049 17.4803 1.2656 17.7418C0.926305 18.0034 0.642239 18.3296 0.429838 18.7016C0.00287339 19.4442 -0.111618 20.326 0.111548 21.153C0.334713 21.9801 0.877258 22.6846 1.61984 23.1116L8.10984 26.8616L1.64984 30.6216C1.05462 30.987 0.59343 31.535 0.335005 32.1839C0.0765799 32.8328 0.034757 33.5478 0.215771 34.2224C0.396785 34.897 0.790943 35.495 1.3395 35.9274C1.88805 36.3597 2.56163 36.6032 3.25984 36.6216C3.8295 36.6227 4.389 36.4707 4.87984 36.1816L16.1398 29.6816C16.6366 29.396 17.0485 28.9833 17.3332 28.486C17.6179 27.9887 17.7651 27.4246 17.7598 26.8516" fill="#29B5E8"/>
<path d="M7.42984 12.9116L18.6998 19.4116C19.2123 19.6882 19.7874 19.8282 20.3696 19.818C20.9519 19.8078 21.5217 19.6478 22.0242 19.3533C22.5266 19.0589 22.9448 18.64 23.2383 18.137C23.5318 17.634 23.6907 17.0639 23.6998 16.4816V3.48159C23.7245 3.03362 23.6576 2.58531 23.5032 2.16407C23.3487 1.74284 23.11 1.35752 22.8016 1.03166C22.4932 0.7058 22.1216 0.446249 21.7095 0.268867C21.2974 0.0914862 20.8535 0 20.4048 0C19.9562 0 19.5122 0.0914862 19.1001 0.268867C18.688 0.446249 18.3164 0.7058 18.008 1.03166C17.6996 1.35752 17.4609 1.74284 17.3065 2.16407C17.1521 2.58531 17.0851 3.03362 17.1098 3.48159V10.9016L10.7098 7.21159C10.3347 6.93398 9.90506 6.73884 9.44917 6.63898C8.99328 6.53912 8.52143 6.5368 8.06458 6.63216C7.60773 6.72753 7.17621 6.91842 6.79834 7.19232C6.42046 7.46622 6.10478 7.81693 5.87202 8.22144C5.63925 8.62595 5.49465 9.07511 5.44771 9.53944C5.40078 10.0038 5.45256 10.4728 5.59968 10.9157C5.74679 11.3586 5.98589 11.7654 6.30131 12.1094C6.61672 12.4533 7.00131 12.7267 7.42984 12.9116Z" fill="#29B5E8"/>
<path d="M32.7598 27.4016C32.7417 27.6886 32.6251 27.9605 32.4298 28.1716L27.9698 32.6216C27.7543 32.8147 27.4789 32.9277 27.1898 32.9416H26.0598C25.7708 32.9277 25.4954 32.8147 25.2798 32.6216L20.8098 28.1516C20.6215 27.937 20.5091 27.6664 20.4898 27.3816V26.2616C20.5084 25.9736 20.6208 25.6996 20.8098 25.4816L25.2798 21.0216C25.4954 20.8285 25.7708 20.7155 26.0598 20.7016H27.1898C27.4789 20.7155 27.7543 20.8285 27.9698 21.0216L32.4298 25.4816C32.6258 25.6962 32.7423 25.9715 32.7598 26.2616V27.4016ZM28.7598 26.8516C28.7449 26.6422 28.6644 26.4427 28.5298 26.2816L27.2198 24.9216C27.0656 24.7745 26.8628 24.6891 26.6498 24.6816C26.4373 24.6909 26.235 24.776 26.0798 24.9216L24.7698 26.2316C24.6278 26.3891 24.5433 26.59 24.5298 26.8016C24.5417 27.0136 24.6265 27.215 24.7698 27.3716L26.0798 28.6916C26.2383 28.8306 26.4393 28.9117 26.6498 28.9216C26.8608 28.9134 27.0623 28.832 27.2198 28.6916L28.5398 27.3716C28.6701 27.2273 28.7507 27.045 28.7698 26.8516H28.7598Z" fill="#29B5E8"/>
<path d="M34.4998 19.4116L45.7598 12.9116C46.1361 12.6929 46.4656 12.4023 46.7295 12.0563C46.9934 11.7103 47.1866 11.3158 47.298 10.8951C47.4095 10.4745 47.4369 10.036 47.3789 9.60472C47.3209 9.17345 47.1785 8.75783 46.9598 8.38159C46.7412 8.00535 46.4506 7.67587 46.1046 7.41194C45.7586 7.14802 45.364 6.95483 44.9434 6.8434C44.5227 6.73197 44.0842 6.70448 43.653 6.76251C43.2217 6.82053 42.8061 6.96294 42.4298 7.18159L36.1298 10.8216V3.45159C36.1298 2.57638 35.7822 1.73701 35.1633 1.11814C34.5444 0.499267 33.7051 0.15159 32.8298 0.15159C31.9546 0.15159 31.1153 0.499267 30.4964 1.11814C29.8775 1.73701 29.5298 2.57638 29.5298 3.45159V16.2216C29.4618 16.9167 29.6121 17.6158 29.9598 18.2216C30.4009 18.9791 31.1237 19.5315 31.9704 19.7582C32.8172 19.9849 33.7193 19.8675 34.4798 19.4316" fill="#29B5E8"/>
<path d="M20.9498 33.9216C20.1773 33.777 19.3786 33.9154 18.6998 34.3116L7.42984 40.8116C6.69634 41.2636 6.16799 41.9838 5.95704 42.8191C5.7461 43.6545 5.86918 44.5392 6.30014 45.2852C6.7311 46.0312 7.43598 46.5799 8.265 46.8145C9.09402 47.0491 9.98185 46.9512 10.7398 46.5416L17.1398 42.8516V50.2116C17.1863 51.0541 17.5537 51.8468 18.1665 52.4268C18.7793 53.0068 19.5911 53.33 20.4348 53.33C21.2786 53.33 22.0903 53.0068 22.7032 52.4268C23.316 51.8468 23.6834 51.0541 23.7298 50.2116V37.2116C23.7322 36.4257 23.4531 35.665 22.9432 35.0671C22.4333 34.4691 21.7262 34.0734 20.9498 33.9516" fill="#29B5E8"/>
<path d="M52.7998 18.6216C52.5833 18.2445 52.2944 17.9139 51.9497 17.6488C51.6051 17.3838 51.2114 17.1894 50.7914 17.077C50.3713 16.9645 49.9332 16.9362 49.5022 16.9936C49.0712 17.0511 48.6558 17.1931 48.2798 17.4116L37.0198 23.9116C36.514 24.2105 36.0948 24.636 35.8036 25.1463C35.5124 25.6566 35.3592 26.234 35.3592 26.8216C35.3592 27.4091 35.5124 27.9865 35.8036 28.4968C36.0948 29.0071 36.514 29.4327 37.0198 29.7316L48.2798 36.2316C49.0378 36.6412 49.9257 36.7391 50.7547 36.5045C51.5837 36.2699 52.2886 35.7212 52.7195 34.9752C53.1505 34.2291 53.2736 33.3445 53.0626 32.5091C52.8517 31.6738 52.3233 30.9536 51.5898 30.5016L45.2098 26.8216L51.5898 23.1316C51.9666 22.916 52.2969 22.6281 52.5619 22.2843C52.8269 21.9405 53.0212 21.5477 53.1336 21.1285C53.2461 20.7092 53.2745 20.2719 53.2172 19.8417C53.16 19.4114 53.0181 18.9968 52.7998 18.6216Z" fill="#29B5E8"/>
</svg>
