<svg width="67" height="29" viewBox="0 0 67 29" fill="none" xmlns="http://www.w3.org/2000/svg">
<g clip-path="url(#clip0_120_511)">
<path d="M4.70858 10.946C4.70858 10.2189 5.30412 9.9391 6.29067 9.9391C7.705 9.9391 9.49162 10.3681 10.9061 11.1325V6.75071C9.36142 6.13546 7.83534 5.89305 6.29067 5.89305C2.5125 5.89305 0 7.86953 0 11.1699C0 16.3159 7.07216 15.4956 7.07216 17.7144C7.07216 18.572 6.32784 18.8518 5.28554 18.8518C3.74088 18.8518 1.76804 18.2177 0.204664 17.3601V21.7977C1.93554 22.5436 3.685 22.8604 5.28554 22.8604C9.15662 22.8604 11.818 20.9401 11.818 17.6025C11.7995 12.0462 4.70858 13.0343 4.70858 10.946ZM17.2897 2.16401L12.7486 3.1335L12.73 18.0686C12.73 20.8282 14.7959 22.8604 17.5503 22.8604C19.0764 22.8604 20.193 22.5808 20.8072 22.2452V18.4602C20.2118 18.7026 17.2711 19.5602 17.2711 16.8007V10.1815H20.8072V6.21005H17.2711L17.2897 2.16401ZM26.5953 7.58976L26.2975 6.21005H22.2775V22.5248H26.9303V11.4681C28.0282 10.0324 29.8895 10.2935 30.4664 10.4985V6.21005C29.8709 5.98626 27.6934 5.57605 26.5953 7.58976ZM31.6016 6.21005H36.273V22.5248H31.6016V6.21005ZM31.6016 4.79298L36.273 3.78612V0.00109863L31.6016 0.98934V4.79298ZM45.988 5.89305C44.1641 5.89305 42.9916 6.75071 42.3403 7.34749L42.0982 6.19144H38.0039V27.932L42.6566 26.9438L42.6753 21.6672C43.3453 22.152 44.3316 22.8418 45.9695 22.8418C49.3009 22.8418 52.3345 20.1569 52.3345 14.2463C52.3159 8.83903 49.245 5.89305 45.988 5.89305ZM44.8714 18.7398C43.7734 18.7398 43.1218 18.3483 42.6753 17.8635L42.6566 10.946C43.1405 10.4053 43.8105 10.0324 44.8714 10.0324C46.565 10.0324 47.7375 11.9342 47.7375 14.3767C47.7375 16.8753 46.5836 18.7398 44.8714 18.7398ZM67 14.4327C67 9.65946 64.6922 5.89305 60.2814 5.89305C55.8518 5.89305 53.1718 9.65959 53.1718 14.3955C53.1718 20.0077 56.3359 22.8418 60.8768 22.8418C63.0916 22.8418 64.7666 22.3384 66.0322 21.6299V17.9007C64.7668 18.5347 63.315 18.9263 61.4725 18.9263C59.6672 18.9263 58.0666 18.2923 57.862 16.0922H66.9628C66.9628 15.8497 67 14.8802 67 14.4327ZM57.8061 12.6614C57.8061 10.5545 59.0903 9.67807 60.2628 9.67807C61.398 9.67807 62.6078 10.5545 62.6078 12.6614H57.8061Z" fill="#6772E5"/>
</g>
<defs>
<clipPath id="clip0_120_511">
<rect width="67" height="28.0578" fill="white"/>
</clipPath>
</defs>
</svg>
