<svg width="77" height="13" viewBox="0 0 77 13" fill="none" xmlns="http://www.w3.org/2000/svg">
<path d="M4.32 12.65L0 1.92999H1.79L5.04 10.53L8.27 1.92999H10.04L5.78 12.65H4.32Z" fill="#ED1C25"/>
<path d="M13.3499 12.65V1.92999H20.5699V3.42999H15.0499V6.47999H19.8399V7.88999H15.0499V11.15H20.7099V12.65H13.3499Z" fill="#ED1C25"/>
<path d="M24.99 12.65V1.93002H29.67C30.1351 1.92441 30.5946 2.03073 31.01 2.24002C31.4119 2.43056 31.7696 2.70306 32.06 3.04002C32.3504 3.35571 32.5808 3.72169 32.74 4.12002C32.916 4.52356 33.0046 4.95979 33 5.40002C32.9926 5.7391 32.9388 6.07557 32.84 6.40002C32.75 6.72889 32.6046 7.04002 32.41 7.32002C32.2258 7.59643 32.0036 7.84554 31.75 8.06002C31.4931 8.26355 31.2019 8.41935 30.89 8.52002L33.44 12.57H31.54L29.18 8.92002H26.71V12.65H24.99ZM26.69 7.44002H29.69C29.9194 7.4382 30.1452 7.38345 30.35 7.28002C30.5522 7.17497 30.7243 7.02009 30.85 6.83002C30.9944 6.63472 31.109 6.41903 31.19 6.19002C31.2636 5.93659 31.3007 5.67393 31.3 5.41002C31.3016 5.1445 31.2576 4.88066 31.17 4.63002C31.0723 4.40286 30.9481 4.18804 30.8 3.99002C30.6468 3.81179 30.4599 3.66564 30.25 3.56002C30.0488 3.46786 29.8312 3.41686 29.61 3.41002H26.71V7.41002L26.69 7.44002Z" fill="#ED1C25"/>
<path d="M36.01 12.65L40.33 1.92999H41.72L46.04 12.65H44.25L43.1 9.72999H38.95L37.84 12.65H36.01ZM41.01 3.81999L39.22 8.48999H42.73L41.01 3.81999Z" fill="#ED1C25"/>
<path d="M49.1099 12.65V1.92999H56.2799V3.42999H50.8099V6.61999H55.3799V8.03999H50.8099V12.65H49.1099Z" fill="#ED1C25"/>
<path d="M69.2999 5.09999V12.65H67.6099V1.92999H68.9299L75.0599 9.65999V1.94999H76.7699V12.65H75.3699L69.2999 5.09999Z" fill="#ED1C25"/>
<path d="M60.8499 5.96002V12.65H62.5499V5.96002C62.2755 6.02949 61.9927 6.05979 61.7099 6.05002C61.4201 6.07082 61.129 6.04036 60.8499 5.96002Z" fill="#ED1C25"/>
<path d="M61.7098 0C61.0778 0.00310904 60.4673 0.230345 59.9871 0.641281C59.5068 1.05222 59.1879 1.6202 59.0872 2.24418C58.9864 2.86816 59.1102 3.50765 59.4366 4.0489C59.7631 4.59015 60.2709 4.99804 60.8699 5.2C61.1398 5.29339 61.4243 5.33742 61.7098 5.33C61.9947 5.3283 62.2778 5.2845 62.5499 5.2C63.1488 4.99804 63.6566 4.59015 63.9831 4.0489C64.3095 3.50765 64.4333 2.86816 64.3325 2.24418C64.2317 1.6202 63.9129 1.05222 63.4326 0.641281C62.9524 0.230345 62.3419 0.00310904 61.7098 0ZM61.7098 4C61.4499 4.00198 61.1953 3.92657 60.9783 3.78339C60.7614 3.64021 60.5919 3.43572 60.4915 3.19595C60.3911 2.95617 60.3643 2.69196 60.4146 2.43691C60.4648 2.18187 60.5898 1.94753 60.7736 1.76373C60.9574 1.57992 61.1917 1.45495 61.4468 1.40472C61.7018 1.3545 61.966 1.38128 62.2058 1.48167C62.4456 1.58206 62.6501 1.75151 62.7932 1.96846C62.9364 2.18542 63.0118 2.44007 63.0099 2.7C63.0072 3.04397 62.8694 3.37312 62.6262 3.61635C62.383 3.85958 62.0538 3.99738 61.7098 4Z" fill="#364754"/>
</svg>
