<svg width="75" height="25" viewBox="0 0 75 25" fill="none" xmlns="http://www.w3.org/2000/svg">
<path d="M48.35 0C43.08 0 38.35 2.73 38.35 7.78C38.35 13.57 46.71 13.97 46.71 16.88C46.71 18.1 45.3 19.2 42.91 19.2C40.814 19.1958 38.7521 18.67 36.91 17.67L35.91 22.76C38.0809 23.6201 40.395 24.0612 42.73 24.06C48.49 24.06 53.03 21.19 53.03 16.06C53.03 9.95 44.64 9.56 44.64 6.86C44.64 5.86 45.79 4.86 48.18 4.86C49.8731 4.8825 51.5425 5.26068 53.08 5.97L54.14 1.05C52.2949 0.363199 50.3386 0.024145 48.37 0.0499992L48.35 0ZM0.12 0.369999L0 1.11C1.43624 1.39307 2.84494 1.80129 4.21 2.33C6.78 3.26 6.97 3.8 7.4 5.48L12.12 23.67H18.45L28.19 0.369999H21.91L15.62 16.21L13.06 2.82C12.9727 2.13083 12.6287 1.49993 12.0967 1.05321C11.5648 0.60649 10.8839 0.376806 10.19 0.41L0.12 0.369999ZM30.73 0.369999L25.73 23.67H31.73L36.66 0.369999H30.73ZM64.31 0.369999C62.85 0.369999 62.09 1.15 61.52 2.51L52.7 23.67H59.01L60.24 20.14H67.91L68.65 23.67H74.22L69.36 0.369999H64.31ZM65.13 6.67L67 15.41H62L65.14 6.67H65.13Z" fill="#1434CB"/>
</svg>
