<svg width="184" height="57" viewBox="0 0 184 57" fill="none" xmlns="http://www.w3.org/2000/svg">
<path d="M23.31 41.23C15.8997 41.1306 8.63218 39.1779 2.16998 35.55C1.99652 35.4205 1.87757 35.231 1.83635 35.0185C1.79514 34.806 1.83462 34.5857 1.94709 34.4008C2.05956 34.2158 2.23694 34.0795 2.44458 34.0183C2.65222 33.9571 2.8752 33.9755 3.06998 34.07C3.18998 34.14 15.16 41.27 28.82 39.07C35.06 38.07 42.82 33.81 50.98 29.32C61.18 23.71 71.73 17.91 81.19 17.32C90.65 16.73 96.19 20.51 102.63 24.94C107.91 28.6 113.89 32.75 123.42 35.32C141.19 40.12 163.42 33.44 175.42 29.85C177.61 29.2 179.49 28.63 180.97 28.25C181.193 28.1921 181.429 28.2248 181.628 28.341C181.827 28.4572 181.971 28.6474 182.03 28.87C182.085 29.0926 182.051 29.328 181.935 29.526C181.82 29.724 181.631 29.8689 181.41 29.93C179.96 30.3 178.09 30.86 175.92 31.51C163.81 35.15 141.26 41.92 123.01 36.99C113.19 34.34 107.08 30.11 101.68 26.37C95.29 21.94 90.24 18.45 81.35 19.05C72.27 19.67 61.89 25.37 51.85 30.89C43.53 35.46 35.67 39.77 29.14 40.83C27.2106 41.1205 25.2609 41.2542 23.31 41.23Z" fill="#3743D6"/>
<path d="M2.68 37.63C4.16012 37.63 5.36 36.4301 5.36 34.95C5.36 33.4699 4.16012 32.27 2.68 32.27C1.19988 32.27 0 33.4699 0 34.95C0 36.4301 1.19988 37.63 2.68 37.63Z" fill="#3743D6"/>
<path d="M180.95 31.13C182.43 31.13 183.63 29.9301 183.63 28.45C183.63 26.9699 182.43 25.77 180.95 25.77C179.47 25.77 178.27 26.9699 178.27 28.45C178.27 29.9301 179.47 31.13 180.95 31.13Z" fill="#3743D6"/>
<path d="M87.22 56.33C75.22 56.33 70.59 51.72 60.39 38.54C48.29 22.88 36.22 14.64 24.53 14.02C11.46 13.33 3.17 18.73 3.08 18.79C2.88793 18.9135 2.65537 18.9575 2.43145 18.9127C2.20753 18.8679 2.00979 18.7379 1.88 18.55C1.75392 18.3587 1.70841 18.1253 1.75335 17.9007C1.79828 17.676 1.93004 17.4781 2.12 17.35C2.48 17.11 10.95 11.57 24.63 12.29C36.84 12.93 49.33 21.41 61.76 37.48C72.34 51.16 76.44 54.6 87.22 54.6C97.22 54.6 103.51 42.6 106.88 36.11L107.7 34.54C110.76 28.83 116.44 18.19 126.76 15.38C132.29 13.87 135.29 15.9 138.76 18.25C141.83 20.32 145.32 22.68 151.59 23.38C164.59 24.84 180.25 2.66999 180.41 2.43999C180.475 2.34585 180.558 2.2656 180.654 2.20395C180.751 2.14229 180.858 2.10046 180.971 2.0809C181.084 2.06135 181.199 2.06447 181.31 2.09006C181.422 2.11566 181.527 2.16323 181.62 2.22999C181.806 2.36452 181.932 2.56628 181.971 2.7923C182.01 3.01831 181.96 3.25072 181.83 3.43999C181.16 4.43999 165.33 26.67 151.4 25.1C146.459 24.5479 141.758 22.6757 137.79 19.68C134.41 17.4 131.97 15.75 127.21 17.05C117.6 19.67 112.15 29.87 109.21 35.36L108.39 36.91C104.88 43.7 98.3 56.33 87.22 56.33Z" fill="#1D83EC"/>
<path d="M2.68 20.7999C4.16012 20.7999 5.36 19.6001 5.36 18.1199C5.36 16.6398 4.16012 15.4399 2.68 15.4399C1.19988 15.4399 0 16.6398 0 18.1199C0 19.6001 1.19988 20.7999 2.68 20.7999Z" fill="#1D83EC"/>
<path d="M180.95 5.36C182.43 5.36 183.63 4.16012 183.63 2.68C183.63 1.19988 182.43 0 180.95 0C179.47 0 178.27 1.19988 178.27 2.68C178.27 4.16012 179.47 5.36 180.95 5.36Z" fill="#1D83EC"/>
</svg>
