<svg width="98" height="18" viewBox="0 0 98 18" fill="none" xmlns="http://www.w3.org/2000/svg">
<path d="M0.000480444 1.95125C-0.00510781 1.69193 0.0436076 1.4343 0.143493 1.19492C0.243379 0.955537 0.392229 0.739693 0.580482 0.561251C0.773752 0.374632 1.00263 0.228865 1.25348 0.132651C1.50432 0.0364369 1.77199 -0.00825255 2.04048 0.00125198C2.30731 -0.0069015 2.57308 0.0384479 2.82211 0.134625C3.07114 0.230803 3.29839 0.375861 3.49048 0.561251C3.67682 0.739558 3.82512 0.953757 3.92644 1.19093C4.02775 1.42811 4.07999 1.68334 4.07999 1.94125C4.07999 2.19916 4.02775 2.4544 3.92644 2.69157C3.82512 2.92875 3.67682 3.14294 3.49048 3.32125C3.29758 3.50485 3.06995 3.64807 2.82096 3.74251C2.57197 3.83696 2.30662 3.88073 2.04048 3.87125C1.77231 3.88562 1.50407 3.84416 1.25275 3.74949C1.00144 3.65481 0.772518 3.50899 0.580482 3.32125C0.392258 3.14702 0.243211 2.93479 0.143219 2.6986C0.0432267 2.46241 -0.00542854 2.20767 0.000480444 1.95125Z" fill="#1DA1F2"/>
<path d="M3.61046 6.13135H0.470459V17.6213H3.61046V6.13135Z" fill="black"/>
<path d="M6.92053 17.6213V2.30134H11.9205C14.1178 2.19262 16.2707 2.94612 17.9205 4.40134C18.6838 5.09118 19.2856 5.94079 19.6831 6.88969C20.0807 7.83859 20.2642 8.86346 20.2205 9.89134C20.2769 10.9223 20.1075 11.9531 19.724 12.9117C19.3406 13.8704 18.7524 14.7337 18.0005 15.4413C17.1926 16.1809 16.2469 16.7541 15.2174 17.1281C14.1879 17.5022 13.0948 17.6698 12.0005 17.6213H6.92053ZM10.0505 14.8313H11.9105C12.5916 14.8662 13.2727 14.7657 13.9147 14.5357C14.5566 14.3057 15.1466 13.9507 15.6505 13.4913C16.1253 13.0324 16.4967 12.4775 16.7399 11.8636C16.983 11.2496 17.0924 10.5909 17.0605 9.93134C17.0929 9.28095 16.9856 8.63118 16.7458 8.02574C16.5061 7.42029 16.1394 6.87323 15.6705 6.42134C14.6213 5.53367 13.273 5.07949 11.9005 5.15134H10.0505V14.8313Z" fill="black"/>
<path d="M22.9404 17.6213V2.30127H33.2504V5.13127H26.0804V8.24127H31.3504V10.9213H26.0804V14.8313H33.5304V17.6613L22.9404 17.6213Z" fill="black"/>
<path d="M46.1605 2.30124H49.2905V17.8912H48.2905L39.4305 8.44124V17.6212H36.3005V2.02124H37.3005L46.1905 11.4812L46.1605 2.30124Z" fill="black"/>
<path d="M56.2605 17.6213V5.13127H51.3605V2.30127H64.3605V5.13127H59.4005V17.6213H56.2605Z" fill="black"/>
<path d="M66.3905 17.6213V2.30127H69.5205V17.6213H66.3905Z" fill="black"/>
<path d="M73.0005 17.6213V2.30127H83.1005V5.13127H76.1605V8.96127H81.8505V11.8313H76.1605V17.6513L73.0005 17.6213Z" fill="black"/>
<path d="M97.8006 2.30125L92.4906 11.5912V17.5912H89.3605V11.5912L84.0605 2.28125H87.5506L90.9406 8.36125L94.3006 2.28125L97.8006 2.30125Z" fill="black"/>
</svg>
